<svg class="animated" id="freepik_stories-receipt" xmlns="http://www.w3.org/2000/svg" viewBox="0 0 500 500" version="1.1" xmlns:xlink="http://www.w3.org/1999/xlink" xmlns:svgjs="http://svgjs.com/svgjs"><style>svg#freepik_stories-receipt:not(.animated) .animable {opacity: 0;}svg#freepik_stories-receipt.animated #freepik--speech-bubble--inject-13 {animation: 1.5s Infinite  linear floating;animation-delay: 0s;}svg#freepik_stories-receipt.animated #freepik--Receipt--inject-13 {animation: 1.5s Infinite  linear floating;animation-delay: 0s;}            @keyframes floating {                0% {                    opacity: 1;                    transform: translateY(0px);                }                50% {                    transform: translateY(-10px);                }                100% {                    opacity: 1;                    transform: translateY(0px);                }            }        </style><g id="freepik--background-complete--inject-13" class="animable" style="transform-origin: 243.582px 266.475px;"><path d="M455.52,190.36a60.37,60.37,0,1,1-84.9-8A60.31,60.31,0,0,1,455.52,190.36Z" style="fill: rgb(245, 245, 245); transform-origin: 409.061px 228.897px;" id="elfa0521wabmf" class="animable"></path><path d="M444.44,199.51a46,46,0,1,1-64.7-6.12A46,46,0,0,1,444.44,199.51Z" style="fill: rgb(235, 235, 235); transform-origin: 409.024px 228.865px;" id="el3qy58fwdyss" class="animable"></path><path d="M443.51,198.4c-.21.19-1.64-1.25-4.46-3.49a48.74,48.74,0,0,0-13.07-7.5,46.9,46.9,0,0,0-10-2.57,46.11,46.11,0,0,0-11.82-.09,41.64,41.64,0,0,0-6.28,1.22,43.38,43.38,0,0,0-6.28,2.19,45.68,45.68,0,0,0-6.09,3.23,44.48,44.48,0,0,0-10.63,9.35,44.27,44.27,0,0,0-4,5.63,42.38,42.38,0,0,0-3,5.95,41.87,41.87,0,0,0-2,6.07,46.08,46.08,0,0,0-1.41,11.73,47.52,47.52,0,0,0,1.27,10.27,48.85,48.85,0,0,0,5.77,13.91c1.87,3.08,3.11,4.68,2.89,4.87s-1.74-1.17-4-4.1a42.37,42.37,0,0,1-7-14,46.12,46.12,0,0,1-.6-23.4,43.42,43.42,0,0,1,2-6.56,45,45,0,0,1,3.13-6.45,45.85,45.85,0,0,1,4.25-6.11,47,47,0,0,1,11.46-10.08,47.68,47.68,0,0,1,6.6-3.44,47,47,0,0,1,13.57-3.47,46.86,46.86,0,0,1,12.62.44,46,46,0,0,1,10.51,3.15,42.67,42.67,0,0,1,13,8.77C442.58,196.52,443.67,198.27,443.51,198.4Z" style="fill: rgb(224, 224, 224); transform-origin: 402.55px 220.256px;" id="el5gojrb9c76w" class="animable"></path><path d="M430.44,246.64l5.19,6.11-5.45,4.63-5.05-5.94c-5.68,4.26-12.29,7-17.28,7.17l-2.66-9.2a28.89,28.89,0,0,0,13.87-5.12l-7.74-9.1c-7.3,3.67-15.78,7.4-22.4-.4-4.92-5.77-4.93-14.3,2.84-22.6l-5.14-6.06,5.45-4.63,5.05,5.94c4.37-3.14,9.28-5.44,13.9-6.08l3,9a29.41,29.41,0,0,0-10.75,4.26l7.88,9.27c7.25-3.73,15.62-7.36,22.15.32C438.09,229.9,438.12,238.33,430.44,246.64Zm-25.93-19.46-6.58-7.74c-2.34,3.11-2.14,5.66-.61,7.46S401.46,228.45,404.51,227.18Zm20.54,5.17c-1.62-1.91-4.08-1.6-7.12-.43l6.39,7.52C426.54,236.53,426.53,234.09,425.05,232.35Z" style="fill: rgb(224, 224, 224); transform-origin: 411.064px 229.985px;" id="elfavnhyh3gl4" class="animable"></path><path d="M471.3,108a35.28,35.28,0,1,1-31.55-38.57A35.24,35.24,0,0,1,471.3,108Z" style="fill: rgb(245, 245, 245); transform-origin: 436.193px 104.53px;" id="elk25xynwe1b" class="animable"></path><path d="M463,107.16A26.89,26.89,0,1,1,438.9,77.77,26.86,26.86,0,0,1,463,107.16Z" style="fill: rgb(235, 235, 235); transform-origin: 436.241px 104.528px;" id="elnn874du5x9" class="animable"></path><path d="M463,106.32c-.16,0-.16-1.2-.38-3.29a28.71,28.71,0,0,0-2.26-8.51,27.44,27.44,0,0,0-3.05-5.22,27,27,0,0,0-4.82-5,26.5,26.5,0,0,0-6.58-3.81,25.23,25.23,0,0,0-3.84-1.2,26,26,0,0,0-8.25-.58,26,26,0,0,0-4,.66,24.64,24.64,0,0,0-3.7,1.21,24.16,24.16,0,0,0-3.34,1.66,26.85,26.85,0,0,0-5.46,4.23,27.94,27.94,0,0,0-3.74,4.75,28.76,28.76,0,0,0-3.41,8.11c-.51,2.05-.67,3.22-.83,3.21s-.23-1.21,0-3.36a24.9,24.9,0,0,1,2.94-8.7,27.46,27.46,0,0,1,3.77-5.18,27.07,27.07,0,0,1,5.71-4.68,27.11,27.11,0,0,1,7.53-3.2,27.14,27.14,0,0,1,4.28-.75,30.39,30.39,0,0,1,4.48,0,30.72,30.72,0,0,1,4.43.67,28,28,0,0,1,4.13,1.33,26.84,26.84,0,0,1,3.75,1.89,26.25,26.25,0,0,1,3.27,2.32,27.54,27.54,0,0,1,5,5.43,27.14,27.14,0,0,1,3,5.66,25.14,25.14,0,0,1,1.71,9C463.43,105.16,463.15,106.33,463,106.32Z" style="fill: rgb(224, 224, 224); transform-origin: 436.275px 91.4537px;" id="el3x2bn97j7gk" class="animable"></path><path d="M437.61,120.71l-.4,4.67L433,125l.4-4.54c-4.1-.61-7.95-2.24-10.09-4.23l2.73-4.89a16.85,16.85,0,0,0,7.83,3.66l.6-7c-4.52-1.52-9.56-3.51-9-9.47.38-4.41,3.92-7.93,10.56-8.1l.41-4.63,4.16.36-.39,4.54A18.83,18.83,0,0,1,448.44,94L445.92,99a17.17,17.17,0,0,0-6.19-2.72l-.61,7.08c4.53,1.49,9.48,3.47,9,9.34C447.71,117,444.22,120.49,437.61,120.71ZM435,101.94l.51-5.91c-2.25.3-3.22,1.44-3.34,2.81S433.26,101.2,435,101.94Zm6.3,10.66c.13-1.46-1-2.35-2.75-3.13l-.5,5.74C440.21,114.94,441.22,113.93,441.34,112.6Z" style="fill: rgb(224, 224, 224); transform-origin: 435.875px 105.59px;" id="eljnmnt0mu5sq" class="animable"></path><path d="M40.73,371.63a32.92,32.92,0,0,0-14-4.83c-2.3-.24-4.81-.17-6.65,1.22a1.36,1.36,0,0,0-.69,1.21,1.49,1.49,0,0,0,.65.83c5.72,4.37,14.37,4.92,20.74,1.57" style="fill: rgb(224, 224, 224); transform-origin: 30.0849px 370.244px;" id="ely7gfbyk8fb" class="animable"></path><path d="M40.37,371.24a69.79,69.79,0,0,1-9.08-8,23.07,23.07,0,0,1-5.69-10.53,4.25,4.25,0,0,1,.45-3.52c7.24,5.65,12.92,13,14.32,22" style="fill: rgb(224, 224, 224); transform-origin: 32.8879px 360.215px;" id="ele683fk95ovh" class="animable"></path><path d="M40.66,371.58a32.7,32.7,0,0,1,.17-11.92,16.09,16.09,0,0,1,6.34-9.84c1.26,2.93.72,6.29-.16,9.35a45.23,45.23,0,0,1-6.3,13.25" style="fill: rgb(224, 224, 224); transform-origin: 44.0536px 361.12px;" id="elh52okxs78k9" class="animable"></path><path d="M47.75,384.29c-4.31.53-8.06,2.8-11.27,5.71A21.29,21.29,0,0,0,30,401.07c4.22-.26,7.81-3.24,10.41-6.58s4.4-7,7.25-10.13" style="fill: rgb(224, 224, 224); transform-origin: 38.875px 392.68px;" id="eln2g2tycq2p" class="animable"></path><path d="M49.29,386.33A27.81,27.81,0,0,1,52.5,360c2.46,8.72,1.56,18.58-3.21,26.3" style="fill: rgb(224, 224, 224); transform-origin: 50.588px 373.165px;" id="elo6b08qovqzc" class="animable"></path><path d="M58.67,397.49a20.11,20.11,0,0,0-19.23,11.06c-.24.48-.45,1.08-.13,1.51a1.44,1.44,0,0,0,1.28.37c3.79-.24,7.14-2.52,9.91-5.12s5.19-5.59,8.25-7.83" style="fill: rgb(224, 224, 224); transform-origin: 48.9486px 403.955px;" id="elg1tkikyv17g" class="animable"></path><path d="M58.37,396.88a35.81,35.81,0,0,1-.36-20c.7-2.57,1.89-5.28,4.27-6.49a.85.85,0,0,1,.65-.12.89.89,0,0,1,.41.48,12,12,0,0,1,1,5.74,35.8,35.8,0,0,1-.9,5.81c-.75,3.55-1.15,7.36-3.1,10.42A23,23,0,0,0,59.12,395c-.37.78-.37,1.06-.71,1.68" style="fill: rgb(224, 224, 224); transform-origin: 60.5655px 383.565px;" id="el45nqwxz6iv5" class="animable"></path><path d="M83.18,400.58c-1.84-7,.11-15.47,4.52-21.21.32-.42.75-.87,1.28-.82.81.07,1,1.15,1,2a38.33,38.33,0,0,1-6.79,20.06" style="fill: rgb(224, 224, 224); transform-origin: 86.2348px 389.578px;" id="el181n9hfu7ca" class="animable"></path><path d="M85.42,402.11a30.82,30.82,0,0,0,25.3-5.15A20.47,20.47,0,0,0,97,395.28c-4.57,1-8.76,3.09-11.6,6.83" style="fill: rgb(224, 224, 224); transform-origin: 98.06px 398.853px;" id="elws21pwngam8" class="animable"></path><path d="M87.3,397.45c4.76-7.76,13.88-12.82,23-13.28-1,3.69-4.08,6.57-7.51,8.3s-7.25,2.5-11,3.23c-1.46.28-3.48.6-4.43,1.75" style="fill: rgb(224, 224, 224); transform-origin: 98.8px 390.81px;" id="elxot8m2n37c" class="animable"></path><path d="M83.65,374.86a66.51,66.51,0,0,0,2.94-13.45c.35-4.59-.3-9.38-2.68-13.31-4.44,8.6-4.89,18.65-.39,27.22" style="fill: rgb(224, 224, 224); transform-origin: 83.5167px 361.71px;" id="el7wzpmodxx4n" class="animable"></path><path d="M98.62,367.29c5.19-9.44,15.8-17,26.53-18-4.14,10.3-15.43,18.27-26.53,18" style="fill: rgb(224, 224, 224); transform-origin: 111.885px 358.293px;" id="elyzeyyl433it" class="animable"></path><path d="M95.35,369.15c7.75,1.18,14.35,6.13,21.59,9.13a9.69,9.69,0,0,0,4.89.93,3.82,3.82,0,0,0,2.39-6.76,10.37,10.37,0,0,0-3.55-2.15c-7.89-3.29-16.35-3.37-24.66-1.38" style="fill: rgb(224, 224, 224); transform-origin: 110.476px 373.413px;" id="elbz2ctfioqvm" class="animable"></path><path d="M90.86,374.58c1.75.5,2.35,1.41,3.74,2.6A40.45,40.45,0,0,0,111,385.59c.63.16,1.45.22,1.76-.35s-.07-1.09-.42-1.53a22.49,22.49,0,0,0-9.89-6.71c-3.78-1.41-7.06-3.11-11.57-2.74" style="fill: rgb(224, 224, 224); transform-origin: 101.867px 379.954px;" id="el0a0odnhpsrit" class="animable"></path><path d="M85.8,341.75a31,31,0,0,0,23.76,8.08,1.63,1.63,0,0,0,1.08-.39c.6-.65-.12-1.65-.81-2.19-7-5.45-15.45-7.71-24-5.5" style="fill: rgb(224, 224, 224); transform-origin: 98.332px 345.431px;" id="el857oheq5vqa" class="animable"></path><path d="M91.8,339.55a33.1,33.1,0,0,1,29.65-4.89,23.5,23.5,0,0,1-14.13,6.2,44.68,44.68,0,0,1-15.52-1.31" style="fill: rgb(224, 224, 224); transform-origin: 106.625px 337.075px;" id="eljw1p7hwwyhb" class="animable"></path><path d="M89.41,324.46c-.68-7-.24-12.48-.72-19.48,0-.56-.16-1.24-.68-1.44-.73-.28-1.34.62-1.58,1.36a22.34,22.34,0,0,0,3,19.41" style="fill: rgb(224, 224, 224); transform-origin: 87.4252px 313.974px;" id="eli3wmcmesur" class="animable"></path><path d="M88.91,325.23A40.86,40.86,0,0,0,100.46,314c2.29-3.13,4.21-6.87,3.69-10.7a11,11,0,0,0-8.33,4.14A23.21,23.21,0,0,0,91.57,316c-.92,3.06-1.57,6.22-2.66,9.23" style="fill: rgb(224, 224, 224); transform-origin: 96.5729px 314.265px;" id="el8amkcreympl" class="animable"></path><path d="M100.26,322.08a93.18,93.18,0,0,0,28.43-16.76c-3.39-1.37-7.28-.55-10.68.82A33.71,33.71,0,0,0,100.11,322" style="fill: rgb(224, 224, 224); transform-origin: 114.4px 313.348px;" id="ela46qxw2l6zd" class="animable"></path><path d="M92.1,329.05c5.25.57,10.58.95,15.79.07s10-2.88,14.74-4.89a1.8,1.8,0,0,0,1-.76,1.14,1.14,0,0,0-.36-1.26,2.93,2.93,0,0,0-1.26-.59c-5.2-1.46-10.81-.78-15.92.95a73.35,73.35,0,0,0-14,6.48" style="fill: rgb(224, 224, 224); transform-origin: 107.891px 325.232px;" id="el22jy9nvh5i4" class="animable"></path><path d="M62.14,342c-3.58-7.23-3.35-15.67-.26-23.12,2.18,3.32,2.45,7.55,2,11.5s-1.6,8-1.68,12" style="fill: rgb(224, 224, 224); transform-origin: 61.7864px 330.63px;" id="elkwdkjl4ba2" class="animable"></path><path d="M47.83,334.77A32.25,32.25,0,0,0,23.88,345,22.34,22.34,0,0,0,37,342.54,66.78,66.78,0,0,0,48.24,335" style="fill: rgb(224, 224, 224); transform-origin: 36.06px 339.962px;" id="elvhd5xe0ekeb" class="animable"></path><path d="M38.22,331.55c-4.38-.35-8.58-.89-12.79.4a15.33,15.33,0,0,0-9.74,8.26,23.08,23.08,0,0,0,12-2.26,68.5,68.5,0,0,0,10.55-6.4" style="fill: rgb(224, 224, 224); transform-origin: 26.965px 335.71px;" id="ela8b6z1dx5y5" class="animable"></path><path d="M52.46,331.7c-3.94-2.58-8-5.2-12.56-6.27s-9.89-.28-13.08,3.18c3.7,2.17,8.2,2.43,12.5,2.42s9.57,0,13.63,1.39" style="fill: rgb(224, 224, 224); transform-origin: 39.885px 328.703px;" id="elgn1cltk3blr" class="animable"></path><path d="M52.48,331.91c-6.73-6.6-9.28-18.47-6.57-27.5a41.9,41.9,0,0,1,6.57,27.5" style="fill: rgb(224, 224, 224); transform-origin: 48.7876px 318.16px;" id="el3naxczre5b7" class="animable"></path><path d="M71,313.2c1.27-2.95,2.16-6.05,3.3-9.05a26.12,26.12,0,0,1,4.7-8.34,12.44,12.44,0,0,1,8.33-4.32,33.52,33.52,0,0,1-16.16,21.75" style="fill: rgb(224, 224, 224); transform-origin: 79.165px 302.365px;" id="eld7uf71do7xg" class="animable"></path><path d="M67.63,317.1c-2.1-2.89-4.53-6.82-7.37-9s-6.56-3.46-10-2.64a23.37,23.37,0,0,0,17.4,11.61" style="fill: rgb(224, 224, 224); transform-origin: 58.96px 311.155px;" id="elbeg4s30j05v" class="animable"></path><path d="M68.3,313.44A49.34,49.34,0,0,1,65,302.69a16.73,16.73,0,0,1,1.68-10.92c3.69,7,4.88,14.47,1.82,21.75" style="fill: rgb(224, 224, 224); transform-origin: 67.4814px 302.645px;" id="elj8ut9qhyivf" class="animable"></path><path d="M71,291.77c2.09-6.92,8.42-12,15.26-14.35A5.78,5.78,0,0,1,89,277a2.33,2.33,0,0,1,2,1.65c.25,1.18-.72,2.23-1.63,3A52.09,52.09,0,0,1,71,291.77" style="fill: rgb(224, 224, 224); transform-origin: 81.02px 284.373px;" id="el3ckx0n02bqt" class="animable"></path><path d="M71.08,286.11c.27-4.46.55-9,2-13.22s4.25-8.19,8.31-10c.7,4.51-1.29,9-3.69,12.87s-5.29,7.53-6.73,11.86" style="fill: rgb(224, 224, 224); transform-origin: 76.251px 275.255px;" id="el6n1750ovl98" class="animable"></path><path d="M71,289.18c-1.73-5-1.9-11.45-4.92-15.84-2.11-3.07-5.49-5.16-7.31-8.42a12.83,12.83,0,0,0,.42,9.56,27.64,27.64,0,0,0,5.59,8c2.23,2.39,4.15,4.18,6.22,6.71" style="fill: rgb(224, 224, 224); transform-origin: 64.5215px 277.055px;" id="elgii29dt0hng" class="animable"></path><path d="M71,437.67c-.14,0-.25-33.64-.26-75.12s.09-75.13.22-75.13.25,33.63.26,75.13S71.14,437.67,71,437.67Z" style="fill: rgb(224, 224, 224); transform-origin: 70.98px 362.545px;" id="el3o9yswy94t8" class="animable"></path><path d="M100.4,336.91a7.13,7.13,0,0,1-1.26.47l-3.48,1.18c-2.94,1-7,2.45-11.35,4.24s-8.41,3.37-10.74,5.38A7.94,7.94,0,0,0,71.41,351c-.33.79-.39,1.27-.44,1.26a1.16,1.16,0,0,1,0-.35,5.19,5.19,0,0,1,.24-1,7.68,7.68,0,0,1,2.11-3A18.81,18.81,0,0,1,78,345c1.87-.87,3.94-1.78,6.13-2.68,4.39-1.8,8.45-3.2,11.42-4.12,1.48-.46,2.69-.8,3.53-1A7.11,7.11,0,0,1,100.4,336.91Z" style="fill: rgb(224, 224, 224); transform-origin: 85.6784px 344.585px;" id="elq8cky6jho8" class="animable"></path><path d="M110,313.24s-.12.15-.36.38l-1.08,1-4,3.66L91.16,330.24c-5.23,4.66-9.76,9.11-12.89,12.46-1.57,1.68-2.81,3.06-3.65,4l-1,1.11a1.79,1.79,0,0,1-.36.37,2.15,2.15,0,0,1,.29-.43c.2-.27.5-.67.9-1.17.8-1,2-2.43,3.54-4.14a169.83,169.83,0,0,1,12.83-12.6c5.25-4.64,10-8.82,13.51-11.83l4.13-3.55,1.14-.94A2.07,2.07,0,0,1,110,313.24Z" style="fill: rgb(224, 224, 224); transform-origin: 91.63px 330.71px;" id="elblrp9648ut6" class="animable"></path><path d="M85.51,335c-.14-.07,1-2.59,2-5.78s1.61-5.89,1.75-5.87a19.59,19.59,0,0,1-1.29,6,39.69,39.69,0,0,1-1.63,4A6.68,6.68,0,0,1,85.51,335Z" style="fill: rgb(224, 224, 224); transform-origin: 87.3791px 329.175px;" id="eln74o6y700rj" class="animable"></path><path d="M71,355.33a5.35,5.35,0,0,1-.81-.93l-2.07-2.65c-1.73-2.25-4.13-5.34-6.82-8.73s-5.16-6.43-7-8.63l-2.11-2.62a6.23,6.23,0,0,1-.73-1,6.32,6.32,0,0,1,.88.88c.53.58,1.3,1.44,2.23,2.52,1.86,2.14,4.37,5.15,7.07,8.54s5,6.53,6.72,8.83c.83,1.15,1.5,2.09,1.94,2.75A6.61,6.61,0,0,1,71,355.33Z" style="fill: rgb(224, 224, 224); transform-origin: 61.23px 343.05px;" id="elg8w5nr1j8rj" class="animable"></path><path d="M64.59,347.06a11.75,11.75,0,0,1-2.7-5.05,14.61,14.61,0,0,1-.61-5.1l.22,0c-.1.39-.17.59-.21.59s0-.23,0-.63l.22,0a23,23,0,0,0,.86,5A37.93,37.93,0,0,0,64.59,347.06Z" style="fill: rgb(224, 224, 224); transform-origin: 62.9229px 341.965px;" id="el321ezzqnjaw" class="animable"></path><path d="M56.27,336.59a8.47,8.47,0,0,0-1.88-1.09,12.55,12.55,0,0,0-5.24-.42,34,34,0,0,0-5.27.85,15.3,15.3,0,0,1-2.17.52,8.11,8.11,0,0,1,2.08-.85,24.14,24.14,0,0,1,5.33-1,11.49,11.49,0,0,1,5.4.58A3.26,3.26,0,0,1,56.27,336.59Z" style="fill: rgb(224, 224, 224); transform-origin: 48.99px 335.545px;" id="elj62co3jrmbd" class="animable"></path><path d="M54.3,334.06c0,.07-1.1-.44-2.89-1.05a28.85,28.85,0,0,0-14.55-1.11c-1.86.33-3,.68-3,.6a2.9,2.9,0,0,1,.77-.33,17.36,17.36,0,0,1,2.18-.61,25.64,25.64,0,0,1,7.45-.52,26,26,0,0,1,7.29,1.64,17.35,17.35,0,0,1,2.06.94C54.06,333.87,54.32,334,54.3,334.06Z" style="fill: rgb(224, 224, 224); transform-origin: 44.0805px 332.516px;" id="eluyt7i5e8x1m" class="animable"></path><path d="M71,323.33a59.8,59.8,0,0,1-2.1-7.32,58.94,58.94,0,0,1-1.64-7.43,60.82,60.82,0,0,1,2.11,7.32A59.87,59.87,0,0,1,71,323.33Z" style="fill: rgb(224, 224, 224); transform-origin: 69.13px 315.955px;" id="elx0nafemr667" class="animable"></path><path d="M71.11,323.33A35.93,35.93,0,0,0,68.77,319a20.27,20.27,0,0,0-3.43-3.55,3.2,3.2,0,0,1,1.32.69,10.67,10.67,0,0,1,2.51,2.58A9.75,9.75,0,0,1,71.11,323.33Z" style="fill: rgb(224, 224, 224); transform-origin: 68.225px 319.39px;" id="ela1whw46y7z" class="animable"></path><path d="M71,419.73c-.06,0-.15-.8-.53-2.23a32.1,32.1,0,0,0-2.25-5.83,80.44,80.44,0,0,0-11.93-16.8c-2.66-3-5.24-5.91-7.43-8.66a58.86,58.86,0,0,1-5.32-7.67,35.88,35.88,0,0,1-2.69-5.69c-.25-.7-.43-1.25-.53-1.63a2.38,2.38,0,0,1-.13-.58s.28.77.84,2.14a41,41,0,0,0,2.8,5.59,65.19,65.19,0,0,0,5.37,7.56c2.21,2.72,4.79,5.58,7.46,8.62,5.39,6.05,9.61,12.15,11.87,17a29,29,0,0,1,2.12,5.93,16.33,16.33,0,0,1,.3,1.69A3.28,3.28,0,0,1,71,419.73Z" style="fill: rgb(224, 224, 224); transform-origin: 55.595px 395.185px;" id="el8106k9omjnh" class="animable"></path><path d="M97.57,389.73a10.67,10.67,0,0,1-1.39.78,31.21,31.21,0,0,0-3.61,2.39,40.5,40.5,0,0,0-4.75,4.33c-1.66,1.76-3.38,3.8-5.13,6-3.49,4.39-6.77,8.28-8.72,11.38-1,1.54-1.72,2.83-2.2,3.74a11.39,11.39,0,0,1-.76,1.4s0-.14.13-.39.24-.63.46-1.09a37.16,37.16,0,0,1,2.07-3.84,124.5,124.5,0,0,1,8.65-11.5c1.75-2.19,3.48-4.24,5.18-6a37.66,37.66,0,0,1,4.86-4.29,24.64,24.64,0,0,1,3.73-2.28c.46-.23.84-.38,1.09-.48A1.39,1.39,0,0,1,97.57,389.73Z" style="fill: rgb(224, 224, 224); transform-origin: 84.29px 404.74px;" id="elo580c16mh2p" class="animable"></path><path d="M98.09,399.47a21.65,21.65,0,0,1-2.94.42,39,39,0,0,0-7,1.38,20.89,20.89,0,0,0-6.25,3.28c-1.44,1.11-2.12,2-2.19,2a2.33,2.33,0,0,1,.44-.68,11.26,11.26,0,0,1,1.53-1.57A19,19,0,0,1,88,400.81a31.48,31.48,0,0,1,7.09-1.26A15.5,15.5,0,0,1,98.09,399.47Z" style="fill: rgb(224, 224, 224); transform-origin: 88.9px 402.991px;" id="elo55cpc8nml" class="animable"></path><path d="M80.59,405.46c-.15-.09,1.17-2.11,2.2-4.84s1.19-5.16,1.37-5.13a4.76,4.76,0,0,1,0,1.58,16.1,16.1,0,0,1-2.57,7.13A4.6,4.6,0,0,1,80.59,405.46Z" style="fill: rgb(224, 224, 224); transform-origin: 82.4021px 400.475px;" id="el9qkzpm2s8i" class="animable"></path><path d="M106.17,363.6a1.66,1.66,0,0,1-.47.25l-1.38.63c-.61.26-1.34.59-2.17,1s-1.8.87-2.81,1.48l-1.61.91c-.56.32-1.11.7-1.69,1.07-1.19.71-2.37,1.6-3.64,2.5a62.45,62.45,0,0,0-14,14.48c-.86,1.3-1.7,2.51-2.38,3.72-.35.6-.71,1.16-1,1.73s-.58,1.11-.86,1.63c-.57,1-1,2-1.38,2.86s-.71,1.59-1,2.21-.42,1-.58,1.4A2.81,2.81,0,0,1,71,400a1.76,1.76,0,0,1,.14-.51l.5-1.44c.21-.63.49-1.39.87-2.24s.77-1.86,1.33-2.91l.83-1.66c.3-.57.65-1.15,1-1.75.67-1.23,1.5-2.46,2.36-3.77a59.84,59.84,0,0,1,14.1-14.59c1.28-.9,2.48-1.78,3.68-2.48.6-.37,1.16-.74,1.72-1.05l1.63-.9c1-.59,2-1,2.86-1.42s1.59-.72,2.21-.95l1.42-.55A2.59,2.59,0,0,1,106.17,363.6Z" style="fill: rgb(224, 224, 224); transform-origin: 88.585px 381.8px;" id="elloycmtr4kb" class="animable"></path><path d="M85.15,377.69A3.4,3.4,0,0,1,86.3,376,7.3,7.3,0,0,1,91,374.18a12.8,12.8,0,0,1,4.9,1,6.78,6.78,0,0,1,1.86.9,11,11,0,0,1-2-.58,15,15,0,0,0-4.77-.79,7.53,7.53,0,0,0-4.45,1.56A14.12,14.12,0,0,0,85.15,377.69Z" style="fill: rgb(224, 224, 224); transform-origin: 91.455px 375.935px;" id="elsp8hboujlpp" class="animable"></path><path d="M82,380.93a17.79,17.79,0,0,0,1.32-4.3,17,17,0,0,0-.3-4.49c.06,0,.32.43.55,1.25a9,9,0,0,1-.75,6.45A3,3,0,0,1,82,380.93Z" style="fill: rgb(224, 224, 224); transform-origin: 82.9286px 376.535px;" id="el4sftjtifvge" class="animable"></path><path d="M47.78,424.55c.72,12.86,4.59,25.93,10.55,39.15H84.24c5.68-13.09,9.29-26.14,9.93-39.15Z" style="fill: rgb(224, 224, 224); transform-origin: 70.975px 444.125px;" id="elq4nr9aapbul" class="animable"></path><path d="M90,445.35c0,.14-8.53.25-19,.25s-19.05-.11-19.05-.25,8.53-.24,19.05-.24S90,445.22,90,445.35Z" style="fill: rgb(250, 250, 250); transform-origin: 70.975px 445.355px;" id="elhjr6fnbzv39" class="animable"></path><path d="M89.39,450c0,.14-8,.24-17.86.24s-17.86-.1-17.86-.24,8-.24,17.86-.24S89.39,449.88,89.39,450Z" style="fill: rgb(250, 250, 250); transform-origin: 71.53px 450px;" id="elh9u63w7ikbt" class="animable"></path><path d="M58.75,433a74.37,74.37,0,0,1,0,11.94,74.37,74.37,0,0,1,0-11.94Z" style="fill: rgb(250, 250, 250); transform-origin: 58.75px 438.97px;" id="el3tp93s05etz" class="animable"></path><path d="M72.63,433a76.51,76.51,0,0,1,0,12.36,79.69,79.69,0,0,1,0-12.36Z" style="fill: rgb(250, 250, 250); transform-origin: 72.635px 439.18px;" id="elcbo9rukjrls" class="animable"></path><path d="M85.66,432.89a79.63,79.63,0,0,1,0,12.61,82.94,82.94,0,0,1,0-12.61Z" style="fill: rgb(250, 250, 250); transform-origin: 85.665px 439.195px;" id="els1dscpmpfq" class="animable"></path><path d="M93.35,433c0,.14-10,.25-22.35.25s-22.34-.11-22.34-.25,10-.24,22.34-.24S93.35,432.86,93.35,433Z" style="fill: rgb(250, 250, 250); transform-origin: 71.005px 433.005px;" id="el85rnqqteexm" class="animable"></path></g><g id="freepik--Floor--inject-13" class="animable" style="transform-origin: 252.88px 466.45px;"><path d="M480.22,466.45c0,.14-101.8.26-227.33.26s-227.35-.12-227.35-.26,101.77-.26,227.35-.26S480.22,466.3,480.22,466.45Z" style="fill: rgb(38, 50, 56); transform-origin: 252.88px 466.45px;" id="el1cguu72aelo" class="animable"></path></g><g id="freepik--Bags--inject-13" class="animable" style="transform-origin: 402.32px 415.02px;"><rect x="385.15" y="363.59" width="90.11" height="102.85" style="fill: rgb(69, 90, 100); transform-origin: 430.205px 415.015px;" id="eldd9udj2t6g" class="animable"></rect><g id="el73w6ix5m8ns"><g style="opacity: 0.3; transform-origin: 468.355px 415.015px;" class="animable"><rect x="461.46" y="363.59" width="13.79" height="102.85" id="elp8325bcpnvd" class="animable" style="transform-origin: 468.355px 415.015px;"></rect></g></g><path d="M453.75,364.48a4.47,4.47,0,0,1-.37.67c-.26.43-.63,1.06-1.14,1.86a56.07,56.07,0,0,1-4.91,6.35,41.17,41.17,0,0,1-9.16,7.6,26,26,0,0,1-27.88.07,41.28,41.28,0,0,1-9.18-7.58,54.69,54.69,0,0,1-4.93-6.34c-.51-.79-.88-1.43-1.14-1.85a3.53,3.53,0,0,1-.37-.67,5,5,0,0,1,.46.61l1.22,1.8a61.4,61.4,0,0,0,5,6.2,41.63,41.63,0,0,0,9.15,7.41,25.79,25.79,0,0,0,27.4-.06,41.77,41.77,0,0,0,9.13-7.44,62,62,0,0,0,5-6.21l1.22-1.8A4.56,4.56,0,0,1,453.75,364.48Z" style="fill: rgb(38, 50, 56); transform-origin: 424.21px 374.764px;" id="elkcrwbxpdhtg" class="animable"></path><polygon points="422.27 466.04 329.38 466.04 340.87 378.15 410.58 378.15 422.27 466.04" style="fill: rgb(38, 50, 56); transform-origin: 375.825px 422.095px;" id="el9l7talw6lwt" class="animable"></polygon><polygon points="454.21 466.45 375.82 466.04 385.02 401.81 444.52 401.81 454.21 466.45" style="fill: rgb(172, 159, 158); transform-origin: 415.015px 434.13px;" id="el0zcb0vvc079" class="animable"></polygon><polygon points="444.52 401.81 452.43 401.81 467.36 466.45 452.43 466.45 444.52 401.81" style="fill: rgb(172, 159, 158); transform-origin: 455.94px 434.13px;" id="ely5qb9q6umtm" class="animable"></polygon><g id="el3xp4ieok84m"><g style="opacity: 0.3; transform-origin: 455.94px 434.13px;" class="animable"><polygon points="444.52 401.81 452.43 401.81 467.36 466.45 452.43 466.45 444.52 401.81" id="elhl7bvy073bt" class="animable" style="transform-origin: 455.94px 434.13px;"></polygon></g></g><rect x="399.58" y="436.66" width="31.62" height="7.64" style="fill: rgb(255, 255, 255); transform-origin: 415.39px 440.48px;" id="el8320ip5w4dt" class="animable"></rect><path d="M436.19,402.17a.87.87,0,0,1,0,.24c0,.18,0,.4,0,.68,0,.59-.12,1.47-.24,2.6a69.07,69.07,0,0,1-1.6,9.49,50.49,50.49,0,0,1-2,6.36c-.45,1.11-.93,2.25-1.5,3.39a24,24,0,0,1-2,3.42,23.45,23.45,0,0,1-6,6,16.43,16.43,0,0,1-4,2,13.24,13.24,0,0,1-4.62.56,17.19,17.19,0,0,1-8.58-2.94,22.07,22.07,0,0,1-5.91-6.06,45.32,45.32,0,0,1-5.65-13.1,67.94,67.94,0,0,1-1.77-9.46c-.14-1.13-.22-2-.28-2.6,0-.28,0-.5,0-.68v-.24a.79.79,0,0,1,.06.23l.1.67c.09.64.21,1.5.37,2.59a75.1,75.1,0,0,0,1.93,9.39,45.52,45.52,0,0,0,5.69,12.93,21.8,21.8,0,0,0,5.79,5.91,16.74,16.74,0,0,0,8.33,2.84,12.69,12.69,0,0,0,4.44-.53,16.24,16.24,0,0,0,3.91-1.95,23.82,23.82,0,0,0,7.87-9.16c.57-1.13,1.06-2.26,1.51-3.35a49.71,49.71,0,0,0,2-6.29,79.16,79.16,0,0,0,1.76-9.42l.33-2.59.1-.68A2.32,2.32,0,0,1,436.19,402.17Z" style="fill: rgb(38, 50, 56); transform-origin: 414.135px 419.38px;" id="el2vzc980cqyq" class="animable"></path><path d="M448.55,401.81c.14,0,2.8,14.39,5.94,32.19s5.57,32.26,5.43,32.29-2.8-14.39-5.94-32.2S448.4,401.84,448.55,401.81Z" style="fill: rgb(38, 50, 56); transform-origin: 454.235px 434.05px;" id="elcxga21r03zw" class="animable"></path></g><g id="freepik--speech-bubble--inject-13" class="animable animator-active" style="transform-origin: 61.8506px 88.0431px;"><path d="M89.25,111.8l-5.62-9.9A26.53,26.53,0,1,0,77.27,109h0Z" style="fill: rgb(255, 255, 255); transform-origin: 61.8652px 88.0365px;" id="elzc66wsa5sh8" class="animable"></path><path d="M89.25,111.8l-12-2.74-.12,0,.08-.1v0l.12.12a26.3,26.3,0,0,1-12.71,5.36,24.12,24.12,0,0,1-4.2.22c-.72,0-1.45-.06-2.19-.12L56,114.15a26.77,26.77,0,0,1-16.56-10.63,26.39,26.39,0,0,1-4.48-10.24,26.88,26.88,0,0,1,.31-11.79,26.16,26.16,0,0,1,5.68-10.9L42,69.4c.36-.4.78-.73,1.17-1.1s.77-.74,1.2-1l1.27-1A11.57,11.57,0,0,1,47,65.43l1.34-.81,1.41-.69a12.79,12.79,0,0,1,1.42-.63A26.94,26.94,0,0,1,63,61.48a26,26,0,0,1,10.9,3.22A26.87,26.87,0,0,1,86.5,80.18a28.46,28.46,0,0,1,1.15,8.62,26.21,26.21,0,0,1-1.3,7.44,27,27,0,0,1-2.65,5.7v-.08c3.54,6.34,5.26,9.44,5.55,9.94l-5.69-9.86,0,0,0-.05a26.32,26.32,0,0,0,3.86-13.06,28.59,28.59,0,0,0-1.17-8.54A26.6,26.6,0,0,0,73.77,65,25.72,25.72,0,0,0,63,61.8a26.69,26.69,0,0,0-11.73,1.81,12.64,12.64,0,0,0-1.41.63l-1.39.67-1.32.81a9.44,9.44,0,0,0-1.3.86l-1.26.94c-.43.3-.79.69-1.19,1s-.8.69-1.15,1.09l-1.06,1.17a25.93,25.93,0,0,0-5.62,10.76,26.7,26.7,0,0,0-.31,11.65,26.18,26.18,0,0,0,4.41,10.12A26.57,26.57,0,0,0,56,113.89l2.21.34c.74.06,1.46.08,2.18.12a23.75,23.75,0,0,0,4.16-.19,26.54,26.54,0,0,0,7.21-2,27.05,27.05,0,0,0,5.43-3.23l.51-.39-.39.51h0l0-.13Z" style="fill: rgb(38, 50, 56); transform-origin: 61.8506px 88.0431px;" id="elwoz2h1h8ptd" class="animable"></path><path d="M62.62,96.1v3H60.46V96.13A11.51,11.51,0,0,1,54,93.94l1.18-2.66a10.16,10.16,0,0,0,5.28,2V88c-2.93-.71-6.07-1.66-6.07-5.33,0-2.69,2-5,6.07-5.43v-3h2.16V77.2A11.15,11.15,0,0,1,68,78.81l-1.08,2.66A10.9,10.9,0,0,0,62.62,80v5.33c2.93.71,6.12,1.64,6.12,5.3C68.74,93.36,66.76,95.68,62.62,96.1ZM60.46,84.82v-4.7c-1.87.29-2.66,1.24-2.66,2.4S58.93,84.37,60.46,84.82Zm4.9,6.09c0-1.29-1.16-1.9-2.74-2.35v4.67C64.55,92.94,65.36,92,65.36,90.91Z" style="fill: rgb(38, 50, 56); transform-origin: 61.37px 86.67px;" id="el2uteanb34al" class="animable"></path></g><g id="freepik--Receipt--inject-13" class="animable" style="transform-origin: 275.205px 258.31px;"><polygon points="371.22 63.99 355.2 50.43 339.19 63.99 323.18 50.43 307.17 63.99 291.17 50.43 275.16 63.99 259.15 50.43 243.15 63.99 227.13 50.43 211.13 63.99 195.12 50.43 179.12 63.99 163.11 50.43 163.11 64.88 163.11 72.19 163.11 444.28 163.11 445.9 163.11 466.04 179.13 452.48 195.15 466.04 211.16 452.48 227.17 466.04 243.18 452.48 259.18 466.04 275.19 452.48 291.2 466.04 307.21 452.48 323.22 466.04 339.22 452.48 355.23 466.04 371.23 452.48 387.24 466.04 387.24 451.6 387.24 445.9 387.24 444.28 387.24 72.19 387.24 64.88 387.24 50.43 371.22 63.99" style="fill: rgb(250, 250, 250); transform-origin: 275.175px 258.235px;" id="elrqjln8f76ve" class="animable"></polygon><path d="M371.22,64l16-13.61.1-.08v.13c0,50.59.09,206.65.18,415.61v.52l-.39-.34-16-13.55h.31l-16,13.56-.16.13-.16-.13-16-13.56h.32l-16,13.56-.16.14-.17-.14-16-13.56h.33l-16,13.57-.16.14-.16-.14-16-13.56h.33l-16,13.56-.17.14-.16-.14-16-13.56h.34l-16,13.56-.17.14-.17-.14-16-13.56h.34l-16,13.56-.17.14-.17-.14L179,452.7l0,0h.34l-16,13.56-.43.36V466c0-158.93,0-304.4.06-415.61V50l.33.28,16,13.57H179l16-13.56.12-.1.13.1c5.77,4.9,10.94,9.29,16,13.57H211L227,50.3l.11-.1.12.1,16,13.56H243l16-13.55.1-.09.1.09,16,13.57h-.18l16-13.55.09-.08.08.08,16,13.57h-.15l16-13.55.07-.06.07.06,16,13.57h-.11l16-13.54,0,0,0,0,16,13.61L355.16,50.47h.08l-16,13.58-.06,0-.05,0-16-13.54h.14l-16,13.57-.08.07-.07-.07-16-13.55h.17l-16,13.57-.09.08-.09-.08-16-13.55h.2l-16,13.57-.11.09-.1-.09L227,50.56h.23l-16,13.57-.12.1-.12-.1L195,50.57h.25l-16,13.57-.12.11-.13-.11L163,50.58l.33-.15c0,111.21,0,256.68.06,415.61l-.43-.2,16-13.56.17-.14.17.14,0,0,16,13.54H195l16-13.56.17-.14.17.14c5.49,4.66,11,9.3,16,13.56H227l16-13.56.17-.14.17.14,16,13.57H259c5.51-4.68,11-9.33,16-13.56l.16-.14.17.14,16,13.56H291l16-13.56.17-.14.16.14,16,13.56h-.32l16-13.56.16-.13.16.13,16,13.56h-.32l16-13.55.15-.14.16.14,16,13.56-.4.18c.09-209,.16-365,.18-415.61l.1,0Z" style="fill: rgb(38, 50, 56); transform-origin: 275.205px 258.31px;" id="ello8ecj4pg0j" class="animable"></path><path d="M256.78,106.56l-1.58-2.27h-1.74v2.27h-1.88V98.4h3.53c2.18,0,3.54,1.13,3.54,3a2.66,2.66,0,0,1-1.68,2.58l1.83,2.62ZM255,99.94h-1.54v2.84H255c1.16,0,1.74-.53,1.74-1.42S256.16,99.94,255,99.94Z" style="fill: rgb(38, 50, 56); transform-origin: 255.19px 102.5px;" id="elttb26xblhfq" class="animable"></path><path d="M266.47,105v1.52h-6.32V98.4h6.16v1.52H262v1.77h3.79v1.47H262V105Z" style="fill: rgb(38, 50, 56); transform-origin: 263.31px 102.46px;" id="el4sr1edt61oc" class="animable"></path><path d="M267.44,102.48a4.49,4.49,0,0,1,7.78-2.77L274,100.82a2.66,2.66,0,0,0-2.05-.95,2.61,2.61,0,1,0,0,5.22,2.58,2.58,0,0,0,2.05-1l1.21,1.12a4.48,4.48,0,0,1-7.78-2.76Z" style="fill: rgb(38, 50, 56); transform-origin: 271.325px 102.467px;" id="el135umtc8z0md" class="animable"></path><path d="M282.81,105v1.52H276.5V98.4h6.16v1.52h-4.29v1.77h3.79v1.47h-3.79V105Z" style="fill: rgb(38, 50, 56); transform-origin: 279.655px 102.46px;" id="elr6sfax7jf7m" class="animable"></path><path d="M284.32,98.4h1.89v8.16h-1.89Z" style="fill: rgb(38, 50, 56); transform-origin: 285.265px 102.48px;" id="el92gtieyuudj" class="animable"></path><path d="M295.22,101.36c0,1.82-1.36,3-3.54,3H290v2.25h-1.89V98.4h3.54C293.86,98.4,295.22,99.53,295.22,101.36Zm-1.91,0c0-.9-.58-1.42-1.74-1.42H290v2.83h1.54C292.73,102.77,293.31,102.25,293.31,101.36Z" style="fill: rgb(38, 50, 56); transform-origin: 291.665px 102.505px;" id="ell9ztozuvf4" class="animable"></path><path d="M298,99.94h-2.61V98.4h7.11v1.54h-2.61v6.62H298Z" style="fill: rgb(38, 50, 56); transform-origin: 298.945px 102.48px;" id="elhiy37gd5iz7" class="animable"></path><path d="M387.24,88c0,.14-50.18.26-112.06.26S163.11,88.16,163.11,88s50.17-.26,112.07-.26S387.24,87.87,387.24,88Z" style="fill: rgb(38, 50, 56); transform-origin: 275.175px 88px;" id="eljye56as8e5m" class="animable"></path><path d="M387.24,116.88c0,.14-50.18.26-112.06.26s-112.07-.12-112.07-.26,50.17-.26,112.07-.26S387.24,116.74,387.24,116.88Z" style="fill: rgb(38, 50, 56); transform-origin: 275.175px 116.88px;" id="el7tbbcz6ctjm" class="animable"></path><path d="M244.32,131.49c0,.14-13.66.26-30.51.26s-30.53-.12-30.53-.26,13.67-.26,30.53-.26S244.32,131.35,244.32,131.49Z" style="fill: rgb(38, 50, 56); transform-origin: 213.8px 131.49px;" id="elm3gpzeyr72e" class="animable"></path><path d="M168.88,147.36c0,.14-.56.26-1.25.26s-1.25-.12-1.25-.26.56-.26,1.25-.26S168.88,147.22,168.88,147.36Z" style="fill: rgb(38, 50, 56); transform-origin: 167.63px 147.36px;" id="elp9lf77wxtr" class="animable"></path><path d="M178.92,147.36a12.25,12.25,0,0,1-5,0,12.25,12.25,0,0,1,5,0Z" style="fill: rgb(38, 50, 56); transform-origin: 176.42px 147.36px;" id="el81wzlifczis" class="animable"></path><path d="M189,147.36a12.25,12.25,0,0,1-5,0,12.25,12.25,0,0,1,5,0Z" style="fill: rgb(38, 50, 56); transform-origin: 186.5px 147.36px;" id="elh1bn3p2eqz" class="animable"></path><path d="M199,147.36a12.25,12.25,0,0,1-5,0,12.25,12.25,0,0,1,5,0Z" style="fill: rgb(38, 50, 56); transform-origin: 196.5px 147.36px;" id="el3ttcx4mmai9" class="animable"></path><path d="M209,147.36a12.25,12.25,0,0,1-5,0,12.25,12.25,0,0,1,5,0Z" style="fill: rgb(38, 50, 56); transform-origin: 206.5px 147.36px;" id="el0q7hsfn7r1nn" class="animable"></path><path d="M219.08,147.36a12.25,12.25,0,0,1-5,0,12.25,12.25,0,0,1,5,0Z" style="fill: rgb(38, 50, 56); transform-origin: 216.58px 147.36px;" id="elmdfm0xsm068" class="animable"></path><path d="M229.12,147.36a12.25,12.25,0,0,1-5,0,12.25,12.25,0,0,1,5,0Z" style="fill: rgb(38, 50, 56); transform-origin: 226.62px 147.36px;" id="elu90aw7nd97s" class="animable"></path><path d="M239.16,147.36a12.25,12.25,0,0,1-5,0,12.25,12.25,0,0,1,5,0Z" style="fill: rgb(38, 50, 56); transform-origin: 236.66px 147.36px;" id="elkva04wrj2ss" class="animable"></path><path d="M249.2,147.36a12.25,12.25,0,0,1-5,0,12.25,12.25,0,0,1,5,0Z" style="fill: rgb(38, 50, 56); transform-origin: 246.7px 147.36px;" id="elsu9pza6lizs" class="animable"></path><path d="M259.24,147.36a12.25,12.25,0,0,1-5,0,12.25,12.25,0,0,1,5,0Z" style="fill: rgb(38, 50, 56); transform-origin: 256.74px 147.36px;" id="elbxzebuwwydo" class="animable"></path><path d="M269.28,147.36a12.25,12.25,0,0,1-5,0,12.25,12.25,0,0,1,5,0Z" style="fill: rgb(38, 50, 56); transform-origin: 266.78px 147.36px;" id="elvam82bf156e" class="animable"></path><path d="M279.32,147.36a12.25,12.25,0,0,1-5,0,12.25,12.25,0,0,1,5,0Z" style="fill: rgb(38, 50, 56); transform-origin: 276.82px 147.36px;" id="el7fs1khee1gb" class="animable"></path><path d="M289.36,147.36a12.25,12.25,0,0,1-5,0,12.25,12.25,0,0,1,5,0Z" style="fill: rgb(38, 50, 56); transform-origin: 286.86px 147.36px;" id="el83aer1j676b" class="animable"></path><path d="M299.4,147.36a12.25,12.25,0,0,1-5,0,12.25,12.25,0,0,1,5,0Z" style="fill: rgb(38, 50, 56); transform-origin: 296.9px 147.36px;" id="elqg9jowgt0o" class="animable"></path><path d="M309.44,147.36a12.25,12.25,0,0,1-5,0,12.25,12.25,0,0,1,5,0Z" style="fill: rgb(38, 50, 56); transform-origin: 306.94px 147.36px;" id="el1kfrt42tivqi" class="animable"></path><path d="M319.48,147.36a12.25,12.25,0,0,1-5,0,12.25,12.25,0,0,1,5,0Z" style="fill: rgb(38, 50, 56); transform-origin: 316.98px 147.36px;" id="elcwrt5mit5go" class="animable"></path><path d="M329.52,147.36a12.25,12.25,0,0,1-5,0,12.25,12.25,0,0,1,5,0Z" style="fill: rgb(38, 50, 56); transform-origin: 327.02px 147.36px;" id="elehr1paa2srj" class="animable"></path><path d="M339.56,147.36a12.25,12.25,0,0,1-5,0,12.25,12.25,0,0,1,5,0Z" style="fill: rgb(38, 50, 56); transform-origin: 337.06px 147.36px;" id="elo7g2qbud7t" class="animable"></path><path d="M349.6,147.36a12.25,12.25,0,0,1-5,0,12.25,12.25,0,0,1,5,0Z" style="fill: rgb(38, 50, 56); transform-origin: 347.1px 147.36px;" id="el7g1gjeciwop" class="animable"></path><path d="M359.64,147.36a12.25,12.25,0,0,1-5,0,12.25,12.25,0,0,1,5,0Z" style="fill: rgb(38, 50, 56); transform-origin: 357.14px 147.36px;" id="el9tjpfmjq05e" class="animable"></path><path d="M369.68,147.36a12.25,12.25,0,0,1-5,0,12.25,12.25,0,0,1,5,0Z" style="fill: rgb(38, 50, 56); transform-origin: 367.18px 147.36px;" id="elsk0m86mfkvb" class="animable"></path><path d="M379.72,147.36a12.25,12.25,0,0,1-5,0,12.25,12.25,0,0,1,5,0Z" style="fill: rgb(38, 50, 56); transform-origin: 377.22px 147.36px;" id="elskfpjru8ops" class="animable"></path><ellipse cx="385.99" cy="147.36" rx="1.25" ry="0.26" style="fill: rgb(38, 50, 56); transform-origin: 385.99px 147.36px;" id="elza47k8bcbir" class="animable"></ellipse><path d="M183.32,170.25v9.49h-1.77v-8h-2v-1.48Z" style="fill: rgb(38, 50, 56); transform-origin: 181.435px 174.995px;" id="elpgkg2rzs58" class="animable"></path><path d="M190.33,179.74l-1.86-2.51-1.87,2.51h-1.88l2.83-3.67-2.7-3.57h1.88l1.78,2.37,1.78-2.37h1.83L189.4,176l2.84,3.7Z" style="fill: rgb(38, 50, 56); transform-origin: 188.48px 176.12px;" id="elz5cgj8tv5br" class="animable"></path><path d="M187.31,199.31v1.49h-7v-1.18l3.77-3.58c.92-.88,1.08-1.44,1.08-2,0-.86-.59-1.37-1.76-1.37a2.7,2.7,0,0,0-2.22,1l-1.24-.95a4.38,4.38,0,0,1,3.61-1.57c2.06,0,3.39,1,3.39,2.73,0,.92-.26,1.76-1.57,3l-2.54,2.42Z" style="fill: rgb(38, 50, 56); transform-origin: 183.625px 195.972px;" id="eltd4ok4ioxri" class="animable"></path><path d="M193.38,200.8l-1.86-2.51-1.87,2.51h-1.87l2.82-3.67-2.7-3.57h1.89l1.78,2.37,1.77-2.37h1.83l-2.71,3.54,2.84,3.7Z" style="fill: rgb(38, 50, 56); transform-origin: 191.54px 197.18px;" id="elg0lrwq51287" class="animable"></path><path d="M183.71,211.57v9.49H182v-8h-2v-1.48Z" style="fill: rgb(38, 50, 56); transform-origin: 181.855px 216.315px;" id="el9r4htsmvpsh" class="animable"></path><path d="M190.72,221.06l-1.85-2.51L187,221.06h-1.87l2.82-3.67-2.7-3.57h1.89l1.78,2.37,1.77-2.37h1.84l-2.72,3.54,2.84,3.7Z" style="fill: rgb(38, 50, 56); transform-origin: 188.89px 217.44px;" id="elbb577ojcrc" class="animable"></path><path d="M183.71,234.21v9.5H182v-8h-2v-1.48Z" style="fill: rgb(38, 50, 56); transform-origin: 181.855px 238.96px;" id="elksvp5y7o70m" class="animable"></path><path d="M190.72,243.71l-1.85-2.51L187,243.71h-1.87l2.82-3.68-2.7-3.56h1.89l1.78,2.37,1.77-2.37h1.84L189.8,240l2.84,3.7Z" style="fill: rgb(38, 50, 56); transform-origin: 188.885px 240.09px;" id="elgftofh1mtot" class="animable"></path><path d="M182.42,267.39h-2.93V266H187v1.39h-2.93v7.46h-1.65Z" style="fill: rgb(38, 50, 56); transform-origin: 183.245px 270.425px;" id="elismniwsecvg" class="animable"></path><path d="M187.48,270.42a4.77,4.77,0,1,1,4.77,4.56A4.53,4.53,0,0,1,187.48,270.42Zm7.88,0a3.11,3.11,0,1,0-3.11,3.11A3,3,0,0,0,195.36,270.42Z" style="fill: rgb(38, 50, 56); transform-origin: 192.245px 270.213px;" id="eliya97iaomid" class="animable"></path><path d="M200.43,267.39H197.5V266H205v1.39h-2.93v7.46h-1.65Z" style="fill: rgb(38, 50, 56); transform-origin: 201.25px 270.425px;" id="elkhx8k33shjs" class="animable"></path><path d="M211.55,272.8h-4.43l-.87,2.05h-1.7l4-8.85h1.62l4,8.85h-1.72Zm-.54-1.29-1.67-3.87-1.66,3.87Z" style="fill: rgb(38, 50, 56); transform-origin: 209.36px 270.425px;" id="elkh2r3zkrc4" class="animable"></path><path d="M215.28,266h1.64v7.46h4.63v1.39h-6.27Z" style="fill: rgb(38, 50, 56); transform-origin: 218.415px 270.425px;" id="elad6dxwkbx6g" class="animable"></path><path d="M180,288.37a4.79,4.79,0,0,1,8.25-3.07l-1.06,1a3.1,3.1,0,0,0-2.37-1,3.11,3.11,0,1,0,0,6.22,3.08,3.08,0,0,0,2.37-1.05l1.06,1a4.47,4.47,0,0,1-3.52,1.49A4.52,4.52,0,0,1,180,288.37Z" style="fill: rgb(38, 50, 56); transform-origin: 184.125px 288.391px;" id="ela4j9kazkwv6" class="animable"></path><path d="M195.37,290.75H191l-.88,2.05h-1.69l4-8.86H194l4,8.86h-1.72Zm-.54-1.29-1.67-3.87-1.66,3.87Z" style="fill: rgb(38, 50, 56); transform-origin: 193.215px 288.37px;" id="eljfxnmgrtb8" class="animable"></path><path d="M198.36,291.86l.57-1.28a4.9,4.9,0,0,0,2.92,1c1.38,0,2-.5,2-1.15,0-1.91-5.26-.66-5.26-4,0-1.43,1.14-2.64,3.56-2.64a5.64,5.64,0,0,1,2.95.78l-.52,1.28a4.89,4.89,0,0,0-2.44-.7c-1.36,0-1.92.53-1.92,1.21,0,1.88,5.25.65,5.25,3.9,0,1.42-1.15,2.64-3.58,2.64A5.71,5.71,0,0,1,198.36,291.86Z" style="fill: rgb(38, 50, 56); transform-origin: 201.915px 288.347px;" id="elhwdh8xi9y3k" class="animable"></path><path d="M214.93,283.94v8.86h-1.65V289H208.7v3.8h-1.64v-8.86h1.64v3.66h4.58v-3.66Z" style="fill: rgb(38, 50, 56); transform-origin: 210.995px 288.37px;" id="elw0hgu659s7" class="animable"></path><path d="M180,306.09a4.79,4.79,0,0,1,8.25-3.08l-1.06,1a3.13,3.13,0,0,0-2.37-1,3.11,3.11,0,1,0,0,6.22,3.08,3.08,0,0,0,2.37-1.05l1.06,1a4.79,4.79,0,0,1-8.25-3.07Z" style="fill: rgb(38, 50, 56); transform-origin: 184.125px 306.095px;" id="elfkmvaad0neh" class="animable"></path><path d="M197.69,301.66v8.86H196v-3.8h-4.58v3.8h-1.64v-8.86h1.64v3.66H196v-3.66Z" style="fill: rgb(38, 50, 56); transform-origin: 193.735px 306.09px;" id="elopiige30pz" class="animable"></path><path d="M205.81,308.47h-4.43l-.87,2h-1.7l4-8.86h1.62l4,8.86h-1.72Zm-.55-1.29-1.67-3.87-1.65,3.87Z" style="fill: rgb(38, 50, 56); transform-origin: 203.62px 306.04px;" id="elq7innw9ikbn" class="animable"></path><path d="M217.41,301.66v8.86h-1.36l-4.88-6v6h-1.63v-8.86h1.35l4.88,6v-6Z" style="fill: rgb(38, 50, 56); transform-origin: 213.475px 306.09px;" id="elis7syhrkknf" class="animable"></path><path d="M225.83,306h1.55v3.53a5.62,5.62,0,0,1-3.46,1.12,4.56,4.56,0,1,1,0-9.11A4.59,4.59,0,0,1,227.5,303l-1,1a3.25,3.25,0,0,0-2.44-1,3.11,3.11,0,1,0,0,6.22,3.67,3.67,0,0,0,1.82-.45Z" style="fill: rgb(38, 50, 56); transform-origin: 223.323px 306.095px;" id="eljxgk9rh2y2" class="animable"></path><path d="M236.19,309.14v1.38h-6.64v-8.86H236V303h-4.82v2.3h4.28v1.36h-4.28v2.44Z" style="fill: rgb(38, 50, 56); transform-origin: 232.87px 306.09px;" id="eld5vf51s2zn" class="animable"></path><path d="M384.61,343.48c0,.15-48.86.26-109.11.26s-109.12-.11-109.12-.26,48.85-.26,109.12-.26S384.61,343.34,384.61,343.48Z" style="fill: rgb(38, 50, 56); transform-origin: 275.495px 343.48px;" id="elufreb7qknp" class="animable"></path><path d="M384.61,378.15c0,.14-48.24.26-107.74.26s-107.75-.12-107.75-.26,48.23-.26,107.75-.26S384.61,378,384.61,378.15Z" style="fill: rgb(38, 50, 56); transform-origin: 276.865px 378.15px;" id="elflea6yeb8kt" class="animable"></path><path d="M234,358.23h-3v-1.75h8.08v1.75h-3v7.53H234Z" style="fill: rgb(38, 50, 56); transform-origin: 235.04px 361.12px;" id="elfwvwcyflq49" class="animable"></path><path d="M248.75,356.48v9.28H246.6V362h-4.22v3.8h-2.14v-9.28h2.14v3.66h4.22v-3.66Z" style="fill: rgb(38, 50, 56); transform-origin: 244.495px 361.14px;" id="elq01oryvzj5e" class="animable"></path><path d="M257.06,363.77h-4.31l-.82,2h-2.2l4.13-9.28H256l4.15,9.28h-2.25Zm-.68-1.63-1.47-3.55-1.47,3.55Z" style="fill: rgb(38, 50, 56); transform-origin: 254.94px 361.13px;" id="elrjeqdn3f72" class="animable"></path><path d="M269.61,356.48v9.28h-1.76l-4.63-5.63v5.63H261.1v-9.28h1.78l4.61,5.64v-5.64Z" style="fill: rgb(38, 50, 56); transform-origin: 265.355px 361.12px;" id="elvzpk7fays2" class="animable"></path><path d="M275.19,362.12l-1.25,1.3v2.34h-2.13v-9.28h2.13v4.34l4.12-4.34h2.38l-3.84,4.14,4.07,5.14h-2.51Z" style="fill: rgb(38, 50, 56); transform-origin: 276.24px 361.12px;" id="elpzb0a5ktegi" class="animable"></path><path d="M289.83,362.48v3.28h-2.15v-3.31l-3.6-6h2.28l2.48,4.13,2.48-4.13h2.11Z" style="fill: rgb(38, 50, 56); transform-origin: 288.755px 361.105px;" id="elhz1p1a3z4fb" class="animable"></path><path d="M293.35,361.12a5.09,5.09,0,1,1,5.08,4.8A4.8,4.8,0,0,1,293.35,361.12Zm8,0a2.9,2.9,0,1,0-2.9,3A2.83,2.83,0,0,0,301.33,361.12Z" style="fill: rgb(38, 50, 56); transform-origin: 298.432px 360.834px;" id="elc8u7weiuhtj" class="animable"></path><path d="M305,361.68v-5.2h2.15v5.12c0,1.76.77,2.49,2.07,2.49s2.07-.73,2.07-2.49v-5.12h2.12v5.2c0,2.73-1.57,4.24-4.21,4.24S305,364.41,305,361.68Z" style="fill: rgb(38, 50, 56); transform-origin: 309.205px 361.2px;" id="elphavkinlci" class="animable"></path><path d="M315.12,364.66a1.27,1.27,0,0,1,2.54,0,1.27,1.27,0,0,1-2.54,0Zm0-8.18h2.46l-.41,6.06h-1.64Z" style="fill: rgb(38, 50, 56); transform-origin: 316.39px 361.205px;" id="eli6ij00g8gk8" class="animable"></path><rect x="207.79" y="391.79" width="2.03" height="41.31" style="fill: rgb(38, 50, 56); transform-origin: 208.805px 412.445px;" id="eltalsxb5xp8i" class="animable"></rect><rect x="211.34" y="391.79" width="4.21" height="41.31" style="fill: rgb(38, 50, 56); transform-origin: 213.445px 412.445px;" id="elnkdfvtqhlzs" class="animable"></rect><rect x="217.54" y="391.79" width="1.13" height="41.31" style="fill: rgb(38, 50, 56); transform-origin: 218.105px 412.445px;" id="el58zs4ehbspl" class="animable"></rect><rect x="250.61" y="391.79" width="1.13" height="41.31" style="fill: rgb(38, 50, 56); transform-origin: 251.175px 412.445px;" id="elb2il2yn8i1f" class="animable"></rect><rect x="225.55" y="391.79" width="1.13" height="41.31" style="fill: rgb(38, 50, 56); transform-origin: 226.115px 412.445px;" id="elh46dp4qsvq" class="animable"></rect><rect x="234.7" y="391.79" width="0.56" height="41.31" style="fill: rgb(38, 50, 56); transform-origin: 234.98px 412.445px;" id="elk5du9bpbtud" class="animable"></rect><rect x="239.94" y="391.79" width="0.56" height="41.31" style="fill: rgb(38, 50, 56); transform-origin: 240.22px 412.445px;" id="ell268x61ufai" class="animable"></rect><rect x="268.32" y="391.79" width="0.56" height="41.31" style="fill: rgb(38, 50, 56); transform-origin: 268.6px 412.445px;" id="eli5rbc7s50m" class="animable"></rect><rect x="266.18" y="391.79" width="0.56" height="41.31" style="fill: rgb(38, 50, 56); transform-origin: 266.46px 412.445px;" id="el69elbpsct1b" class="animable"></rect><rect x="254.33" y="391.79" width="0.56" height="41.31" style="fill: rgb(38, 50, 56); transform-origin: 254.61px 412.445px;" id="eluek6fww801t" class="animable"></rect><rect x="220.47" y="391.79" width="1.88" height="41.31" style="fill: rgb(38, 50, 56); transform-origin: 221.41px 412.445px;" id="elcbe8unmyfk6" class="animable"></rect><rect x="237.04" y="391.79" width="1.88" height="41.31" style="fill: rgb(38, 50, 56); transform-origin: 237.98px 412.445px;" id="elq6armks7v2k" class="animable"></rect><rect x="276.98" y="391.79" width="1.88" height="41.31" style="fill: rgb(38, 50, 56); transform-origin: 277.92px 412.445px;" id="elpy68ko4eanb" class="animable"></rect><rect x="242.27" y="391.79" width="1.47" height="41.31" style="fill: rgb(38, 50, 56); transform-origin: 243.005px 412.445px;" id="el7gq8g9psrum" class="animable"></rect><rect x="272.4" y="391.79" width="1.47" height="41.31" style="fill: rgb(38, 50, 56); transform-origin: 273.135px 412.445px;" id="el7isj63vzjqc" class="animable"></rect><rect x="258.34" y="391.79" width="1.47" height="41.31" style="fill: rgb(38, 50, 56); transform-origin: 259.075px 412.445px;" id="eloqfii6x6ni" class="animable"></rect><rect x="245.62" y="391.79" width="1.47" height="41.31" style="fill: rgb(38, 50, 56); transform-origin: 246.355px 412.445px;" id="eleuq50icobvf" class="animable"></rect><rect x="229.11" y="391.79" width="3.66" height="41.31" style="fill: rgb(38, 50, 56); transform-origin: 230.94px 412.445px;" id="elcgixjp4bk7" class="animable"></rect><rect x="281.02" y="391.79" width="3.66" height="41.31" style="fill: rgb(38, 50, 56); transform-origin: 282.85px 412.445px;" id="elxr20mrzy19d" class="animable"></rect><g id="elvrdm5yntd3m"><rect x="339.13" y="391.79" width="2.03" height="41.31" style="fill: rgb(38, 50, 56); transform-origin: 340.145px 412.445px; transform: rotate(180deg);" class="animable"></rect></g><g id="eldxk087eiyb"><rect x="333.39" y="391.79" width="4.21" height="41.31" style="fill: rgb(38, 50, 56); transform-origin: 335.495px 412.445px; transform: rotate(180deg);" class="animable"></rect></g><g id="el51h773dgmj3"><rect x="330.27" y="391.79" width="1.13" height="41.31" style="fill: rgb(38, 50, 56); transform-origin: 330.835px 412.445px; transform: rotate(180deg);" class="animable"></rect></g><g id="eles0nwdbkxnp"><rect x="297.2" y="391.79" width="1.13" height="41.31" style="fill: rgb(38, 50, 56); transform-origin: 297.765px 412.445px; transform: rotate(180deg);" class="animable"></rect></g><g id="elytsk1wwh1s"><rect x="322.25" y="391.79" width="1.13" height="41.31" style="fill: rgb(38, 50, 56); transform-origin: 322.815px 412.445px; transform: rotate(180deg);" class="animable"></rect></g><g id="elld8x1dw357"><rect x="313.67" y="391.79" width="0.56" height="41.31" style="fill: rgb(38, 50, 56); transform-origin: 313.95px 412.445px; transform: rotate(180deg);" class="animable"></rect></g><g id="elgsb3ry32i45"><rect x="308.43" y="391.79" width="0.56" height="41.31" style="fill: rgb(38, 50, 56); transform-origin: 308.71px 412.445px; transform: rotate(180deg);" class="animable"></rect></g><g id="elx46m27du08f"><rect x="294.04" y="391.79" width="0.56" height="41.31" style="fill: rgb(38, 50, 56); transform-origin: 294.32px 412.445px; transform: rotate(180deg);" class="animable"></rect></g><g id="eltq62k2xjgt"><rect x="326.58" y="391.79" width="1.88" height="41.31" style="fill: rgb(38, 50, 56); transform-origin: 327.52px 412.445px; transform: rotate(180deg);" class="animable"></rect></g><g id="el2lbatz9ka8g"><rect x="310.02" y="391.79" width="1.88" height="41.31" style="fill: rgb(38, 50, 56); transform-origin: 310.96px 412.445px; transform: rotate(180deg);" class="animable"></rect></g><g id="elj3fe35kmbe"><rect x="305.2" y="391.79" width="1.47" height="41.31" style="fill: rgb(38, 50, 56); transform-origin: 305.935px 412.445px; transform: rotate(180deg);" class="animable"></rect></g><g id="elmuabeiku4g7"><rect x="289.12" y="391.79" width="1.47" height="41.31" style="fill: rgb(38, 50, 56); transform-origin: 289.855px 412.445px; transform: rotate(180deg);" class="animable"></rect></g><g id="ell7ewfzdx94o"><rect x="301.85" y="391.79" width="1.47" height="41.31" style="fill: rgb(38, 50, 56); transform-origin: 302.585px 412.445px; transform: rotate(180deg);" class="animable"></rect></g><g id="elaeai0dtk5yd"><rect x="316.16" y="391.79" width="3.66" height="41.31" style="fill: rgb(38, 50, 56); transform-origin: 317.99px 412.445px; transform: rotate(180deg);" class="animable"></rect></g><path d="M317.86,179.85v1.52h-1.12v-1.5a6,6,0,0,1-3.32-1.13l.61-1.37a5.17,5.17,0,0,0,2.71,1v-2.71c-1.5-.37-3.12-.86-3.12-2.74,0-1.39,1-2.59,3.12-2.8v-1.53h1.12v1.51a5.81,5.81,0,0,1,2.75.82l-.56,1.37a5.61,5.61,0,0,0-2.19-.73v2.74c1.5.37,3.14.84,3.14,2.73C321,178.44,320,179.64,317.86,179.85Zm-1.12-5.8v-2.42c-1,.15-1.37.64-1.37,1.24S316,173.82,316.74,174.05Zm2.53,3.13c0-.66-.6-1-1.41-1.21v2.4C318.85,178.22,319.27,177.76,319.27,177.18Z" style="fill: rgb(38, 50, 56); transform-origin: 317.21px 174.98px;" id="el2lw5t288mkf" class="animable"></path><path d="M329,178.25v1.49h-7v-1.18l3.77-3.58c.92-.88,1.09-1.44,1.09-2,0-.87-.6-1.37-1.77-1.37a2.67,2.67,0,0,0-2.22,1l-1.24-.95a4.4,4.4,0,0,1,3.61-1.58c2.06,0,3.39,1,3.39,2.73,0,.92-.25,1.76-1.57,3l-2.54,2.41Z" style="fill: rgb(38, 50, 56); transform-origin: 325.315px 174.907px;" id="el1jjx9n356s8" class="animable"></path><path d="M336.87,176.83c0,1.67-1.21,3-3.76,3a6,6,0,0,1-3.57-1.1l.75-1.37a4.48,4.48,0,0,0,2.79.94c1.27,0,2-.56,2-1.45s-.58-1.48-2.55-1.48h-2.29l.49-5.17h5.57v1.48h-4.08l-.2,2.19h.9C335.74,173.92,336.87,175.15,336.87,176.83Z" style="fill: rgb(38, 50, 56); transform-origin: 333.205px 175.015px;" id="elm7ej0js4kjs" class="animable"></path><path d="M340.05,178.71a2.93,2.93,0,0,1-.31,1.17l-.69,1.91H338l.54-2.07a1.12,1.12,0,0,1,.47-2.13A1.06,1.06,0,0,1,340.05,178.71Z" style="fill: rgb(38, 50, 56); transform-origin: 338.978px 179.69px;" id="elr619w0oimkm" class="animable"></path><path d="M348.1,176.83c0,1.67-1.21,3-3.76,3a6,6,0,0,1-3.57-1.1l.75-1.37a4.48,4.48,0,0,0,2.79.94c1.26,0,2-.56,2-1.45s-.58-1.48-2.55-1.48h-2.29l.49-5.17h5.57v1.48h-4.08l-.21,2.19h.91C347,173.92,348.1,175.15,348.1,176.83Z" style="fill: rgb(38, 50, 56); transform-origin: 344.435px 175.015px;" id="elohykz5shgz" class="animable"></path><path d="M349.11,175c0-3.12,1.71-4.89,4-4.89s4,1.77,4,4.89-1.71,4.88-4,4.88S349.11,178.12,349.11,175Zm6.16,0c0-2.3-.89-3.35-2.2-3.35s-2.18,1-2.18,3.35.89,3.35,2.18,3.35S355.27,177.29,355.27,175Z" style="fill: rgb(38, 50, 56); transform-origin: 353.11px 174.995px;" id="el5hq8ok7eunv" class="animable"></path><path d="M317.86,201.27v1.52h-1.12v-1.51a5.9,5.9,0,0,1-3.32-1.12l.61-1.37a5.25,5.25,0,0,0,2.71,1V197.1c-1.5-.36-3.12-.85-3.12-2.74,0-1.38,1-2.59,3.12-2.79V190h1.12v1.5a5.81,5.81,0,0,1,2.75.83l-.56,1.37a5.61,5.61,0,0,0-2.19-.73v2.74c1.5.36,3.14.84,3.14,2.72C321,199.86,320,201.05,317.86,201.27Zm-1.12-5.81v-2.41c-1,.15-1.37.64-1.37,1.23S316,195.23,316.74,195.46Zm2.53,3.14c0-.67-.6-1-1.41-1.21v2.4C318.85,199.64,319.27,199.18,319.27,198.6Z" style="fill: rgb(38, 50, 56); transform-origin: 317.21px 196.395px;" id="elj4cas30ru8t" class="animable"></path><path d="M329,199.67v1.49h-7V200l3.77-3.58c.92-.88,1.09-1.44,1.09-2,0-.87-.6-1.37-1.77-1.37a2.67,2.67,0,0,0-2.22,1l-1.24-1a4.4,4.4,0,0,1,3.61-1.57c2.06,0,3.39,1,3.39,2.73a3.77,3.77,0,0,1-1.57,3l-2.54,2.42Z" style="fill: rgb(38, 50, 56); transform-origin: 325.315px 196.317px;" id="elxspv6atjuu8" class="animable"></path><path d="M337.28,196.25c0,3.26-1.9,5.05-4.66,5.05a4.78,4.78,0,0,1-2.49-.61l.65-1.33a3.21,3.21,0,0,0,1.8.46c1.79,0,2.92-1.12,2.92-3.27v0a3.23,3.23,0,0,1-2.54,1,3,3,0,0,1-3.27-2.91,3.17,3.17,0,0,1,3.47-3.08C335.76,191.53,337.28,193.2,337.28,196.25Zm-2-1.74c0-.89-.71-1.6-2-1.6a1.65,1.65,0,0,0-1.86,1.62c0,1,.75,1.61,1.9,1.61A1.73,1.73,0,0,0,335.23,194.51Z" style="fill: rgb(38, 50, 56); transform-origin: 333.485px 196.424px;" id="elhaypewqk9pv" class="animable"></path><path d="M345.78,196.25c0,3.26-1.9,5.05-4.65,5.05a4.85,4.85,0,0,1-2.5-.61l.65-1.33a3.23,3.23,0,0,0,1.8.46c1.8,0,2.92-1.12,2.92-3.27v0a3.23,3.23,0,0,1-2.54,1,3,3,0,0,1-3.27-2.91c0-1.89,1.54-3.08,3.48-3.08C344.26,191.53,345.78,193.2,345.78,196.25Zm-2-1.74c0-.89-.71-1.6-2-1.6a1.65,1.65,0,0,0-1.86,1.62c0,1,.75,1.61,1.9,1.61A1.73,1.73,0,0,0,343.73,194.51Z" style="fill: rgb(38, 50, 56); transform-origin: 341.985px 196.431px;" id="el8s5xhl32fv9" class="animable"></path><path d="M349,200.13a3,3,0,0,1-.32,1.17l-.69,1.91h-1.1l.55-2.08a1,1,0,0,1-.64-1,1.1,1.1,0,1,1,2.2,0Z" style="fill: rgb(38, 50, 56); transform-origin: 347.899px 201.12px;" id="elu37ovknwdyj" class="animable"></path><path d="M350,196.41c0-3.12,1.71-4.88,4-4.88s4,1.76,4,4.88-1.71,4.89-4,4.89S350,199.53,350,196.41Zm6.16,0c0-2.29-.89-3.35-2.2-3.35s-2.18,1.06-2.18,3.35.9,3.35,2.18,3.35S356.11,198.7,356.11,196.41Z" style="fill: rgb(38, 50, 56); transform-origin: 354px 196.415px;" id="elizz32in81ol" class="animable"></path><path d="M359.08,196.41c0-3.12,1.71-4.88,4-4.88s4,1.76,4,4.88-1.7,4.89-4,4.89S359.08,199.53,359.08,196.41Zm6.16,0c0-2.29-.9-3.35-2.2-3.35s-2.18,1.06-2.18,3.35.89,3.35,2.18,3.35S365.24,198.7,365.24,196.41Z" style="fill: rgb(38, 50, 56); transform-origin: 363.08px 196.415px;" id="elqcwk817d2oh" class="animable"></path><path d="M318.58,222v1.52h-1.11V222a5.9,5.9,0,0,1-3.32-1.13l.61-1.37a5.17,5.17,0,0,0,2.71,1v-2.71c-1.5-.37-3.12-.86-3.12-2.74,0-1.38,1-2.59,3.12-2.79v-1.54h1.11v1.51a5.74,5.74,0,0,1,2.76.83l-.56,1.37a5.47,5.47,0,0,0-2.2-.74v2.74c1.51.37,3.15.84,3.15,2.73C321.73,220.59,320.71,221.79,318.58,222Zm-1.11-5.8v-2.42c-1,.15-1.37.64-1.37,1.24S316.68,216,317.47,216.2Zm2.52,3.13c0-.66-.59-1-1.41-1.21v2.41C319.57,220.38,320,219.91,320,219.33Z" style="fill: rgb(38, 50, 56); transform-origin: 317.94px 217.12px;" id="el69hp7y4vweu" class="animable"></path><path d="M329.47,219.05c0,1.6-1.2,3-3.75,3a6,6,0,0,1-3.57-1.1l.76-1.37a4.43,4.43,0,0,0,2.78.94c1.26,0,2-.56,2-1.44s-.63-1.41-2.07-1.41h-.86v-1.21l2.15-2.56h-4.31V212.4h6.47v1.18l-2.31,2.74A2.71,2.71,0,0,1,329.47,219.05Z" style="fill: rgb(38, 50, 56); transform-origin: 325.81px 217.225px;" id="elebwp3uibnb" class="animable"></path><path d="M337.43,220.4v1.5h-7v-1.18l3.78-3.59c.92-.88,1.08-1.43,1.08-2,0-.87-.6-1.37-1.76-1.37a2.69,2.69,0,0,0-2.23,1l-1.23-.95a4.39,4.39,0,0,1,3.61-1.58c2.06,0,3.39,1.05,3.39,2.73,0,.92-.26,1.76-1.58,3L333,220.4Z" style="fill: rgb(38, 50, 56); transform-origin: 333.75px 217.062px;" id="elgb9nh2v36w9" class="animable"></path><path d="M340.75,220.86a2.93,2.93,0,0,1-.31,1.17l-.69,1.91h-1.1l.54-2.07a1,1,0,0,1-.63-1,1.1,1.1,0,1,1,2.19,0Z" style="fill: rgb(38, 50, 56); transform-origin: 339.655px 221.803px;" id="eliajcbggp3fd" class="animable"></path><path d="M349.2,217c0,3.26-1.89,5.05-4.65,5.05a4.69,4.69,0,0,1-2.49-.61l.65-1.33a3.21,3.21,0,0,0,1.8.46c1.79,0,2.92-1.11,2.92-3.27h0a3.26,3.26,0,0,1-2.54,1,3,3,0,0,1-3.27-2.92,3.17,3.17,0,0,1,3.47-3.08C347.68,212.26,349.2,213.93,349.2,217Zm-2-1.73c0-.9-.71-1.6-2-1.6a1.65,1.65,0,0,0-1.86,1.61c0,1,.75,1.62,1.9,1.62A1.74,1.74,0,0,0,347.16,215.25Z" style="fill: rgb(38, 50, 56); transform-origin: 345.41px 217.169px;" id="el279so3kdwosi" class="animable"></path><path d="M357.71,217c0,3.26-1.9,5.05-4.66,5.05a4.71,4.71,0,0,1-2.49-.61l.65-1.33a3.21,3.21,0,0,0,1.8.46c1.79,0,2.92-1.11,2.92-3.27h0a3.26,3.26,0,0,1-2.54,1,3,3,0,0,1-3.27-2.92c0-1.88,1.54-3.08,3.48-3.08C356.19,212.26,357.71,213.93,357.71,217Zm-2-1.73c0-.9-.71-1.6-2-1.6a1.65,1.65,0,0,0-1.86,1.61c0,1,.75,1.62,1.9,1.62A1.74,1.74,0,0,0,355.66,215.25Z" style="fill: rgb(38, 50, 56); transform-origin: 353.915px 217.176px;" id="elow7auowq35b" class="animable"></path><path d="M318.58,239.72v1.52h-1.11v-1.51a5.9,5.9,0,0,1-3.32-1.12l.61-1.37a5.25,5.25,0,0,0,2.71,1v-2.71c-1.5-.37-3.12-.86-3.12-2.74,0-1.39,1-2.6,3.12-2.8v-1.53h1.11V230a6,6,0,0,1,2.76.83l-.56,1.37a5.6,5.6,0,0,0-2.2-.73v2.74c1.51.37,3.15.84,3.15,2.73C321.73,238.31,320.71,239.5,318.58,239.72Zm-1.11-5.81V231.5c-1,.15-1.37.64-1.37,1.23S316.68,233.68,317.47,233.91Zm2.52,3.14c0-.67-.59-1-1.41-1.21v2.4C319.57,238.09,320,237.63,320,237.05Z" style="fill: rgb(38, 50, 56); transform-origin: 317.94px 234.85px;" id="elk82ka47c6w" class="animable"></path><path d="M330.38,236.67a3.17,3.17,0,0,1-3.47,3.08c-2.59,0-4.11-1.67-4.11-4.72,0-3.26,1.9-5.05,4.65-5.05a4.75,4.75,0,0,1,2.5.61l-.65,1.33a3.24,3.24,0,0,0-1.81-.46c-1.79,0-2.91,1.11-2.91,3.27h0a3.26,3.26,0,0,1,2.53-1A3,3,0,0,1,330.38,236.67Zm-1.71.08c0-1-.74-1.61-1.9-1.61a1.72,1.72,0,0,0-1.92,1.62c0,.9.7,1.6,2,1.6A1.64,1.64,0,0,0,328.67,236.75Z" style="fill: rgb(38, 50, 56); transform-origin: 326.59px 234.871px;" id="el28lq247qy4r" class="animable"></path><path d="M333.61,238.58a3.16,3.16,0,0,1-.31,1.17l-.7,1.91h-1.09l.54-2.08a1,1,0,0,1-.64-1,1.1,1.1,0,1,1,2.2,0Z" style="fill: rgb(38, 50, 56); transform-origin: 332.509px 239.57px;" id="elqg7bpjzwt6" class="animable"></path><path d="M341.65,236.7c0,1.66-1.21,3.05-3.76,3.05a5.91,5.91,0,0,1-3.56-1.1l.74-1.37a4.49,4.49,0,0,0,2.8.94c1.26,0,2-.56,2-1.46s-.58-1.48-2.55-1.48H335l.49-5.16h5.57v1.48H337l-.2,2.19h.91C340.53,233.79,341.65,235,341.65,236.7Z" style="fill: rgb(38, 50, 56); transform-origin: 337.99px 234.936px;" id="elez9wn6be0xs" class="animable"></path><path d="M342.67,234.86c0-3.12,1.7-4.88,4-4.88s4,1.76,4,4.88-1.71,4.89-4,4.89S342.67,238,342.67,234.86Zm6.15,0c0-2.29-.89-3.35-2.19-3.35s-2.19,1.06-2.19,3.35.9,3.36,2.19,3.36S348.82,237.16,348.82,234.86Z" style="fill: rgb(38, 50, 56); transform-origin: 346.67px 234.865px;" id="elnjzwmora40a" class="animable"></path><path d="M317.86,275v1.52h-1.12V275a5.9,5.9,0,0,1-3.32-1.12l.61-1.37a5.25,5.25,0,0,0,2.71,1v-2.72c-1.5-.36-3.12-.85-3.12-2.74,0-1.38,1-2.59,3.12-2.79v-1.53h1.12v1.5a5.93,5.93,0,0,1,2.75.83l-.56,1.37a5.61,5.61,0,0,0-2.19-.73v2.74c1.5.36,3.14.84,3.14,2.72C321,273.55,320,274.74,317.86,275Zm-1.12-5.81v-2.41c-1,.15-1.37.64-1.37,1.23S316,268.92,316.74,269.15Zm2.53,3.14c0-.67-.6-1-1.41-1.21v2.4C318.85,273.33,319.27,272.87,319.27,272.29Z" style="fill: rgb(38, 50, 56); transform-origin: 317.21px 270.125px;" id="ela5dgzcjm819" class="animable"></path><path d="M328.75,272c0,1.6-1.21,3-3.76,3a6,6,0,0,1-3.57-1.1l.76-1.37a4.43,4.43,0,0,0,2.78.93c1.26,0,2-.55,2-1.44s-.63-1.41-2.06-1.41H324v-1.2l2.15-2.57h-4.31v-1.48h6.47v1.18l-2.3,2.74C327.84,269.51,328.75,270.58,328.75,272Z" style="fill: rgb(38, 50, 56); transform-origin: 325.085px 270.18px;" id="elfvpk0bnmeo" class="animable"></path><path d="M337.48,271.91A3.17,3.17,0,0,1,334,275c-2.59,0-4.11-1.67-4.11-4.73,0-3.25,1.9-5,4.65-5a4.75,4.75,0,0,1,2.5.61l-.66,1.33a3.21,3.21,0,0,0-1.8-.46c-1.79,0-2.92,1.11-2.92,3.27h0a3.26,3.26,0,0,1,2.54-1A3,3,0,0,1,337.48,271.91Zm-1.71.08c0-1-.75-1.62-1.9-1.62a1.74,1.74,0,0,0-1.93,1.63c0,.9.71,1.6,2,1.6A1.65,1.65,0,0,0,335.77,272Z" style="fill: rgb(38, 50, 56); transform-origin: 333.685px 270.141px;" id="ele0zx1gmeh2v" class="animable"></path><path d="M345.14,272c0,1.6-1.21,3-3.76,3a6,6,0,0,1-3.56-1.1l.76-1.37a4.39,4.39,0,0,0,2.78.93c1.26,0,2-.55,2-1.44s-.62-1.41-2.06-1.41h-.87v-1.2l2.16-2.57h-4.31v-1.48h6.47v1.18l-2.31,2.74C344.23,269.51,345.14,270.58,345.14,272Z" style="fill: rgb(38, 50, 56); transform-origin: 341.48px 270.18px;" id="elsmr896onz4p" class="animable"></path><path d="M348.46,273.82a3.16,3.16,0,0,1-.31,1.17l-.69,1.91h-1.1l.54-2.08a1,1,0,0,1-.64-1,1.1,1.1,0,1,1,2.2,0Z" style="fill: rgb(38, 50, 56); transform-origin: 347.359px 274.81px;" id="elgujmz9dww" class="animable"></path><path d="M356.91,269.94c0,3.25-1.9,5.05-4.65,5.05a4.85,4.85,0,0,1-2.5-.61l.65-1.33a3.24,3.24,0,0,0,1.81.46c1.79,0,2.92-1.12,2.92-3.27v0a3.23,3.23,0,0,1-2.54,1,3,3,0,0,1-3.27-2.91c0-1.89,1.53-3.08,3.47-3.08C355.39,265.22,356.91,266.89,356.91,269.94Zm-2.05-1.74c0-.89-.7-1.6-2-1.6a1.65,1.65,0,0,0-1.86,1.62c0,1,.74,1.61,1.9,1.61A1.72,1.72,0,0,0,354.86,268.2Z" style="fill: rgb(38, 50, 56); transform-origin: 353.12px 270.121px;" id="elntoybx1267k" class="animable"></path><path d="M365.41,269.94c0,3.25-1.89,5.05-4.65,5.05a4.78,4.78,0,0,1-2.49-.61l.65-1.33a3.21,3.21,0,0,0,1.8.46c1.79,0,2.92-1.12,2.92-3.27v0a3.23,3.23,0,0,1-2.54,1,3,3,0,0,1-3.27-2.91c0-1.89,1.53-3.08,3.47-3.08C363.89,265.22,365.41,266.89,365.41,269.94Zm-2-1.74c0-.89-.71-1.6-2-1.6a1.65,1.65,0,0,0-1.86,1.62c0,1,.75,1.61,1.9,1.61A1.73,1.73,0,0,0,363.37,268.2Z" style="fill: rgb(38, 50, 56); transform-origin: 361.62px 270.121px;" id="elpurasqlfjtq" class="animable"></path><path d="M317.86,292.91v1.52h-1.12v-1.51a5.9,5.9,0,0,1-3.32-1.13l.61-1.37a5.17,5.17,0,0,0,2.71,1v-2.72c-1.5-.36-3.12-.85-3.12-2.74,0-1.38,1-2.59,3.12-2.79v-1.53h1.12v1.5a5.7,5.7,0,0,1,2.75.83l-.56,1.37a5.61,5.61,0,0,0-2.19-.73v2.74c1.5.36,3.14.84,3.14,2.72C321,291.5,320,292.69,317.86,292.91Zm-1.12-5.81v-2.41c-1,.15-1.37.63-1.37,1.23S316,286.87,316.74,287.1Zm2.53,3.13c0-.66-.6-1-1.41-1.2v2.4C318.85,291.28,319.27,290.82,319.27,290.23Z" style="fill: rgb(38, 50, 56); transform-origin: 317.21px 288.035px;" id="elkegbhekiaw8" class="animable"></path><path d="M330.67,290.64H329v2.16h-1.71v-2.16h-5.21v-1.22l4.68-6.12h1.89l-4.41,5.85h3.1v-1.91H329v1.91h1.68Z" style="fill: rgb(38, 50, 56); transform-origin: 326.38px 288.05px;" id="elmtqto6lo95" class="animable"></path><path d="M331.41,288.05c0-3.12,1.71-4.88,4-4.88s4,1.76,4,4.88-1.71,4.88-4,4.88S331.41,291.17,331.41,288.05Zm6.16,0c0-2.29-.89-3.35-2.19-3.35s-2.19,1.06-2.19,3.35.9,3.35,2.19,3.35S337.57,290.34,337.57,288.05Z" style="fill: rgb(38, 50, 56); transform-origin: 335.41px 288.05px;" id="elcefwuzqkekt" class="animable"></path><path d="M340.54,288.05c0-3.12,1.71-4.88,4-4.88s4,1.76,4,4.88-1.71,4.88-4,4.88S340.54,291.17,340.54,288.05Zm6.16,0c0-2.29-.9-3.35-2.2-3.35s-2.18,1.06-2.18,3.35.89,3.35,2.18,3.35S346.7,290.34,346.7,288.05Z" style="fill: rgb(38, 50, 56); transform-origin: 344.54px 288.05px;" id="el32j6yfutqw4" class="animable"></path><path d="M351.68,291.77a3,3,0,0,1-.32,1.16l-.69,1.92h-1.1l.54-2.08a1,1,0,0,1-.63-1,1.1,1.1,0,1,1,2.2,0Z" style="fill: rgb(38, 50, 56); transform-origin: 350.579px 292.76px;" id="elerqfvosrew9" class="animable"></path><path d="M352.65,288.05c0-3.12,1.71-4.88,4-4.88s4,1.76,4,4.88-1.71,4.88-4,4.88S352.65,291.17,352.65,288.05Zm6.16,0c0-2.29-.9-3.35-2.2-3.35s-2.18,1.06-2.18,3.35.89,3.35,2.18,3.35S358.81,290.34,358.81,288.05Z" style="fill: rgb(38, 50, 56); transform-origin: 356.65px 288.05px;" id="elmqr8det4c7" class="animable"></path><path d="M361.78,288.05c0-3.12,1.71-4.88,4-4.88s4,1.76,4,4.88-1.71,4.88-4,4.88S361.78,291.17,361.78,288.05Zm6.16,0c0-2.29-.9-3.35-2.2-3.35s-2.19,1.06-2.19,3.35.9,3.35,2.19,3.35S367.94,290.34,367.94,288.05Z" style="fill: rgb(38, 50, 56); transform-origin: 365.78px 288.05px;" id="el1kugg2a84g3i" class="animable"></path><path d="M317.86,310.63v1.51h-1.12v-1.5a5.9,5.9,0,0,1-3.32-1.13l.61-1.37a5.08,5.08,0,0,0,2.71,1v-2.71c-1.5-.36-3.12-.85-3.12-2.74,0-1.38,1-2.59,3.12-2.79v-1.54h1.12v1.51a5.7,5.7,0,0,1,2.75.83l-.56,1.37a5.81,5.81,0,0,0-2.19-.74v2.74c1.5.37,3.14.85,3.14,2.73C321,309.21,320,310.41,317.86,310.63Zm-1.12-5.81V302.4c-1,.15-1.37.64-1.37,1.24S316,304.59,316.74,304.82Zm2.53,3.13c0-.66-.6-1-1.41-1.2v2.4C318.85,309,319.27,308.54,319.27,308Z" style="fill: rgb(38, 50, 56); transform-origin: 317.21px 305.75px;" id="eli67tisl0ehi" class="animable"></path><path d="M328.75,307.67c0,1.6-1.21,3-3.76,3a5.92,5.92,0,0,1-3.57-1.1l.76-1.37a4.43,4.43,0,0,0,2.78.94c1.26,0,2-.56,2-1.44s-.63-1.41-2.06-1.41H324v-1.21l2.15-2.56h-4.31V301h6.47v1.18l-2.3,2.74A2.71,2.71,0,0,1,328.75,307.67Z" style="fill: rgb(38, 50, 56); transform-origin: 325.085px 305.836px;" id="el6qtovg1lnay" class="animable"></path><path d="M337.48,307.57c0,1.89-1.53,3.08-3.47,3.08-2.59,0-4.11-1.67-4.11-4.72,0-3.25,1.9-5,4.65-5a4.75,4.75,0,0,1,2.5.61l-.66,1.33a3.21,3.21,0,0,0-1.8-.47c-1.79,0-2.92,1.12-2.92,3.27v0a3.23,3.23,0,0,1,2.54-1A3,3,0,0,1,337.48,307.57Zm-1.71.08c0-1-.75-1.61-1.9-1.61a1.73,1.73,0,0,0-1.93,1.63c0,.89.71,1.6,2,1.6A1.65,1.65,0,0,0,335.77,307.65Z" style="fill: rgb(38, 50, 56); transform-origin: 333.69px 305.789px;" id="elu731469lgpc" class="animable"></path><path d="M340.71,309.49a3,3,0,0,1-.32,1.16l-.69,1.91h-1.1l.55-2.07a1,1,0,0,1-.64-1,1.1,1.1,0,1,1,2.2,0Z" style="fill: rgb(38, 50, 56); transform-origin: 339.609px 310.475px;" id="elwcfjph1c7nb" class="animable"></path><path d="M341.68,305.77c0-3.12,1.71-4.88,4-4.88s4,1.76,4,4.88-1.71,4.88-4,4.88S341.68,308.89,341.68,305.77Zm6.16,0c0-2.29-.9-3.35-2.2-3.35s-2.18,1.06-2.18,3.35.89,3.35,2.18,3.35S347.84,308.06,347.84,305.77Z" style="fill: rgb(38, 50, 56); transform-origin: 345.68px 305.77px;" id="elru0toddyfkh" class="animable"></path><path d="M354,301v9.5h-1.76v-8h-2V301Z" style="fill: rgb(38, 50, 56); transform-origin: 352.12px 305.75px;" id="elh6ahuefioj" class="animable"></path><path d="M248.87,177.3c0,.15-11.11.26-24.81.26s-24.82-.11-24.82-.26,11.11-.26,24.82-.26S248.87,177.16,248.87,177.3Z" style="fill: rgb(38, 50, 56); transform-origin: 224.055px 177.3px;" id="eld9qppe52ge6" class="animable"></path><path d="M280.08,198.11c0,.14-17.77.26-39.67.26s-39.68-.12-39.68-.26,17.76-.26,39.68-.26S280.08,198,280.08,198.11Z" style="fill: rgb(38, 50, 56); transform-origin: 240.405px 198.11px;" id="elxbsex7ug7c" class="animable"></path><path d="M251.55,218.91c0,.14-11.38.26-25.41.26s-25.41-.12-25.41-.26,11.37-.26,25.41-.26S251.55,218.77,251.55,218.91Z" style="fill: rgb(38, 50, 56); transform-origin: 226.14px 218.91px;" id="elxpiupqcf9dq" class="animable"></path><path d="M246.2,240.9c0,.14-8.65.26-19.32.26s-19.31-.12-19.31-.26,8.64-.26,19.31-.26S246.2,240.76,246.2,240.9Z" style="fill: rgb(38, 50, 56); transform-origin: 226.885px 240.9px;" id="elu8k556x5jdr" class="animable"></path></g><g id="freepik--Character--inject-13" class="animable" style="transform-origin: 123.33px 281.359px;"><path d="M148.18,109.59a17.24,17.24,0,0,1,4.65,15.26c-.52,2.64-1.61,5.59-.12,7.83s4.85,2.55,6.25,4.82c1.65,2.66-.4,6.1-.06,9.22a6.21,6.21,0,0,0,6,5.35,24.35,24.35,0,0,1-12.54,3.77q-1.41-2.34-2.83-4.68c1.09,1.65.47,4-.93,5.39a10.13,10.13,0,0,1-5.34,2.37,30.76,30.76,0,0,1-26.23-7.49" style="fill: rgb(38, 50, 56); transform-origin: 140.965px 134.507px;" id="elo1ianh9qlro" class="animable"></path><path d="M95.34,127.23c.91-2,2.25-3.72,3-5.77,1.49-4.4-.11-9.74,2.56-13.55,1.9-2.71,5.39-3.73,8.64-4.33s6.72-1,9.34-3c1.91-1.49,3.16-3.7,5.07-5.2,2.73-2.13,6.43-2.52,9.88-2.33a20.83,20.83,0,0,1,10.13,2.89,11.37,11.37,0,0,1,5.42,8.7c.08,1.73-.34,3.49,0,5.18.38,1.87,1.62,3.43,2.3,5.22a9.1,9.1,0,0,1-3.54,10.57l-27.84,28.37c-5.3,1.32-17.33-2.45-20.81-6.66S93.05,132.19,95.34,127.23Z" style="fill: rgb(38, 50, 56); transform-origin: 123.361px 123.628px;" id="eluj7yw3u517" class="animable"></path><path d="M147.92,121.52c-.16-7.2-4.57-16.21-11.76-15.75l-22.59,4.75a4.22,4.22,0,0,0-3.94,4.12l.21,54-.16,0s4.45,15.42,19.42,11.41c3-.8,4.44-4,5.17-7.22l.15,0c0-.39,0-.76.06-1.13a35.14,35.14,0,0,0,.4-7.4h0c.23-4.35.3-6.14.3-6.1s9.25-1.15,11.63-13.05C148,139.3,148.1,129.52,147.92,121.52Z" style="fill: rgb(255, 190, 157); transform-origin: 128.81px 143.234px;" id="el1yq3ogiqqt5" class="animable"></path><path d="M129.57,130.33a1.55,1.55,0,0,1-1.55,1.49,1.47,1.47,0,0,1-1.53-1.45,1.55,1.55,0,0,1,1.55-1.49A1.48,1.48,0,0,1,129.57,130.33Z" style="fill: rgb(38, 50, 56); transform-origin: 128.03px 130.35px;" id="elzsfgketow9p" class="animable"></path><path d="M145.23,130.33a1.55,1.55,0,0,1-1.55,1.49,1.46,1.46,0,0,1-1.52-1.45,1.53,1.53,0,0,1,1.54-1.49A1.48,1.48,0,0,1,145.23,130.33Z" style="fill: rgb(38, 50, 56); transform-origin: 143.695px 130.35px;" id="elq0dnzp9jtd" class="animable"></path><path d="M146.21,126.74c-.2.26-1.51-.8-3.31-.75s-3.09,1.13-3.29.88.09-.58.65-1.08a4.17,4.17,0,0,1,2.62-1,4.09,4.09,0,0,1,2.65.92C146.1,126.17,146.31,126.63,146.21,126.74Z" style="fill: rgb(38, 50, 56); transform-origin: 142.89px 125.848px;" id="elg9xqx8r1kiq" class="animable"></path><path d="M129.53,126.71c-.24.23-1.51-.95-3.43-1.09s-3.4.78-3.59.51c-.09-.12.16-.55.81-1a4.66,4.66,0,0,1,2.9-.72,4.5,4.5,0,0,1,2.7,1.18C129.48,126.14,129.65,126.6,129.53,126.71Z" style="fill: rgb(38, 50, 56); transform-origin: 126.029px 125.567px;" id="eltpo9zpu8ma" class="animable"></path><path d="M134.83,138.67a10.79,10.79,0,0,1,2.71-.38c.42,0,.83-.09.91-.38a2.2,2.2,0,0,0-.23-1.26c-.36-1-.73-2.13-1.12-3.27-1.55-4.64-2.65-8.46-2.46-8.52s1.59,3.66,3.14,8.31c.37,1.14.73,2.23,1.06,3.28a2.44,2.44,0,0,1,.16,1.66,1.08,1.08,0,0,1-.72.59,2.77,2.77,0,0,1-.72.07A10.92,10.92,0,0,1,134.83,138.67Z" style="fill: rgb(38, 50, 56); transform-origin: 136.848px 131.836px;" id="elaacvy1cu9gi" class="animable"></path><path d="M135.18,158.27a30.42,30.42,0,0,1-15.86-4.92s3.55,8.38,15.59,7.75Z" style="fill: rgb(235, 153, 110); transform-origin: 127.25px 157.242px;" id="el0gk09mhck3om" class="animable"></path><path d="M134,142.62a3,3,0,0,0-2.62-1.21,2.72,2.72,0,0,0-1.92.93,1.72,1.72,0,0,0-.21,2,2,2,0,0,0,2.14.64,6.28,6.28,0,0,0,2.17-1.17,2,2,0,0,0,.49-.47.56.56,0,0,0,0-.62" style="fill: rgb(172, 159, 158); transform-origin: 131.583px 143.237px;" id="el9hv8zcoixs9" class="animable"></path><path d="M129.92,139.61c.27,0,.2,1.79,1.69,3.13s3.4,1.21,3.4,1.47c0,.11-.44.33-1.24.32a4.49,4.49,0,0,1-2.85-1.13,3.86,3.86,0,0,1-1.3-2.61C129.58,140,129.8,139.6,129.92,139.61Z" style="fill: rgb(38, 50, 56); transform-origin: 132.313px 142.07px;" id="ell5913y456yj" class="animable"></path><path d="M130,121.11c-.18.44-1.82.16-3.77.31s-3.54.62-3.78.21c-.11-.2.18-.61.83-1a6.27,6.27,0,0,1,2.83-.86,6.42,6.42,0,0,1,2.93.46C129.77,120.53,130.11,120.89,130,121.11Z" style="fill: rgb(38, 50, 56); transform-origin: 126.224px 120.772px;" id="eld0sbqv5ru3d" class="animable"></path><path d="M145.17,121.71c-.35.36-1.63-.08-3.19-.17s-2.91.14-3.19-.27c-.13-.19.09-.56.69-.89a4.91,4.91,0,0,1,2.62-.51,4.76,4.76,0,0,1,2.52.86C145.16,121.13,145.33,121.53,145.17,121.71Z" style="fill: rgb(38, 50, 56); transform-origin: 141.991px 120.851px;" id="eluzijsq8o7nm" class="animable"></path><path d="M108.57,111.66c1.29-1.56,3.36-2.19,5.33-2.7a110,110,0,0,1,25.92-3.44c.86,1.89-.41,4.18-2.18,5.27s-3.91,1.36-5.93,1.85-4.13,1.38-5.15,3.19-.66,4.42-1.64,6.39c-1.7,3.41-6.8,4-8.48,7.39-1.27,2.58,0,5.63,0,8.51a10.29,10.29,0,0,1-11.4,10.45l1.83-30.82C107,115.61,107.2,113.31,108.57,111.66Z" style="fill: rgb(38, 50, 56); transform-origin: 122.568px 127.075px;" id="ely9ify7d6u7i" class="animable"></path><path d="M85,135c1.78-1.26,4-2.27,4.83-4.26,1.29-2.9-.71-6.72,1.17-9.28,1.71-2.33,5.88-1.71,7.5-4.11,1.27-1.87.29-3.78.89-5.48s3.26-3,5-2.53L116,131.19c.5,6.93,1.37,10.69-.55,14.48a32.43,32.43,0,0,0-2.92,6.34c-.59,2.25-.31,4.92,1.41,6.5-8.41-.33-15.7-5.61-22.42-10.67l-7.11-5.36a5.68,5.68,0,0,1-1.9-2C81.56,138.5,83.19,136.27,85,135Z" style="fill: rgb(38, 50, 56); transform-origin: 99.4333px 133.876px;" id="ele9znkm0ye97" class="animable"></path><path d="M91.5,145.77a3.71,3.71,0,0,0,.87.28,7.63,7.63,0,0,0,2.62.12,8.14,8.14,0,0,0,3.85-1.52,8,8,0,0,0,3-4.59,8.11,8.11,0,0,0,.11-3.23,13.21,13.21,0,0,0-1.19-3.28,12.89,12.89,0,0,1-1.22-3.4,4.15,4.15,0,0,1,.87-3.48c.87-.93,2.31-1,3.68-1.38a3.91,3.91,0,0,0,1.93-1.11,3.71,3.71,0,0,0,.83-2.12,23.4,23.4,0,0,0-.44-4.45,4.91,4.91,0,0,1,.24-2.13,3.06,3.06,0,0,1,1.4-1.55,8.53,8.53,0,0,1,4.35-.63,9.1,9.1,0,0,0,4.44-.75,8.27,8.27,0,0,0,3.32-2.84,13.41,13.41,0,0,0,1.55-3.87,19.12,19.12,0,0,1,1.26-3.65,8.27,8.27,0,0,1,2.31-2.72,9.42,9.42,0,0,1,11.1-.25,11.29,11.29,0,0,1,2.92,2.82,14.37,14.37,0,0,1,1.65,3.08.76.76,0,0,0-.05-.23,6.22,6.22,0,0,0-.22-.64A11.4,11.4,0,0,0,136.49,99a9.89,9.89,0,0,0-5.18-1.8,10.1,10.1,0,0,0-6.33,2,8.91,8.91,0,0,0-2.44,2.85,19,19,0,0,0-1.31,3.73,13.11,13.11,0,0,1-1.51,3.73,7.73,7.73,0,0,1-3.13,2.66,8.69,8.69,0,0,1-4.23.71,8.77,8.77,0,0,0-4.59.69,3.41,3.41,0,0,0-1.62,1.79,5.3,5.3,0,0,0-.27,2.35,23.37,23.37,0,0,1,.44,4.37,3.24,3.24,0,0,1-.71,1.85,3.33,3.33,0,0,1-1.7,1c-.65.19-1.34.29-2,.49a4,4,0,0,0-1.86,1,4.59,4.59,0,0,0-1,3.85,12.22,12.22,0,0,0,1.28,3.51,12.79,12.79,0,0,1,1.17,3.18,8,8,0,0,1-.06,3.08,7.74,7.74,0,0,1-2.79,4.45A8,8,0,0,1,95,146,9,9,0,0,1,91.5,145.77Z" style="fill: rgb(69, 90, 100); transform-origin: 116.225px 121.714px;" id="el2a4ud2muzy9" class="animable"></path><path d="M82.08,130.11a1.61,1.61,0,0,0-.36.64,3,3,0,0,0,.12,2.11,3.08,3.08,0,0,0,.93,1.25,3.31,3.31,0,0,0,1.72.68,4.18,4.18,0,0,0,3.93-1.89,5.63,5.63,0,0,0,.89-2.47,7.77,7.77,0,0,0-.26-2.82c-.45-1.88-1.45-3.78-1.22-5.89a3.85,3.85,0,0,1,1.3-2.75,4.28,4.28,0,0,1,3.14-.59,10.13,10.13,0,0,0,3.65.05,3.14,3.14,0,0,0,1.63-1.07,4.57,4.57,0,0,0,.83-1.77,14.78,14.78,0,0,0,.13-3.74,8.29,8.29,0,0,1,.6-3.41,8.68,8.68,0,0,1,4.48-4.63,12.27,12.27,0,0,1,5.93-.64,17.24,17.24,0,0,0,5.37-.21,11.29,11.29,0,0,0,6.37-4.3,8,8,0,0,0,1.3-2.52,16.64,16.64,0,0,1-1.46,2.41,11.21,11.21,0,0,1-6.29,4.07,16.85,16.85,0,0,1-5.26.15,12.53,12.53,0,0,0-6.14.63,9.1,9.1,0,0,0-4.74,4.86,8.62,8.62,0,0,0-.64,3.6,14.56,14.56,0,0,1-.13,3.62A3.13,3.13,0,0,1,95.79,118a10.14,10.14,0,0,1-3.47-.06,4.66,4.66,0,0,0-3.48.7,4.31,4.31,0,0,0-1.46,3.07,8.22,8.22,0,0,0,.39,3.19c.3,1,.64,1.93.88,2.84a7.37,7.37,0,0,1,.28,2.68,5.26,5.26,0,0,1-.8,2.32,3.91,3.91,0,0,1-3.61,1.81,3.14,3.14,0,0,1-1.61-.6,3,3,0,0,1-.9-1.13,3.1,3.1,0,0,1-.2-2A5.28,5.28,0,0,1,82.08,130.11Z" style="fill: rgb(38, 50, 56); transform-origin: 102.072px 115.476px;" id="elnoirbsk9zhj" class="animable"></path><path d="M169.3,145.42a3.23,3.23,0,0,1-.28,2.17,2.89,2.89,0,0,1-1.94,1.56,3,3,0,0,1-3-1.2,2.76,2.76,0,0,1-.51-1.83,5.6,5.6,0,0,1,.57-2.07c.61-1.36,1.69-2.79,1.77-4.64a6.77,6.77,0,0,0-2-5.12,8.14,8.14,0,0,0-2.44-1.67,11.37,11.37,0,0,0-2.91-.77,15.81,15.81,0,0,1-2.85-.65,3.87,3.87,0,0,1-2.08-1.65,4.75,4.75,0,0,1-.52-2.56,9.48,9.48,0,0,1,.52-2.55,19.2,19.2,0,0,0,1.32-4.78,7.47,7.47,0,0,0-1-4.23,9.53,9.53,0,0,0-2.45-2.61,19.13,19.13,0,0,1-2-1.76,5.59,5.59,0,0,1-1.16-1.91s0,0,0,.15a1.92,1.92,0,0,0,.12.43,4.46,4.46,0,0,0,.88,1.46,15.66,15.66,0,0,0,2,1.84,9.56,9.56,0,0,1,2.32,2.57,7.2,7.2,0,0,1,.91,4,19.72,19.72,0,0,1-1.35,4.67,9.68,9.68,0,0,0-.55,2.66,5.13,5.13,0,0,0,.57,2.82,4.32,4.32,0,0,0,2.32,1.88,15.73,15.73,0,0,0,2.93.67,10.76,10.76,0,0,1,2.81.74,7.56,7.56,0,0,1,2.29,1.56,6.32,6.32,0,0,1,1.86,4.75c-.05,1.7-1.06,3.08-1.69,4.5a6.14,6.14,0,0,0-.58,2.23,3.17,3.17,0,0,0,.61,2,3.31,3.31,0,0,0,3.3,1.25,3,3,0,0,0,2.05-1.73,3.08,3.08,0,0,0,.28-1.69A1.67,1.67,0,0,0,169.3,145.42Z" style="fill: rgb(38, 50, 56); transform-origin: 158.891px 129.273px;" id="elv324n10nov" class="animable"></path><path d="M166,428.38l-.34,23.18s25.12,8.95,25,14.32l-46.39.13,1.59-13.94-2.46-23.2Z" style="fill: rgb(172, 159, 158); transform-origin: 167.03px 447.195px;" id="el6feyxpr02kj" class="animable"></path><path d="M144.18,466.45l.48-4.21,44.55,1.08a3.85,3.85,0,0,1,1.41,2.56Z" style="fill: rgb(38, 50, 56); transform-origin: 167.4px 464.345px;" id="elqlt64aag67" class="animable"></path><path d="M166.84,452.25c0,.23-1.15.34-2.28,1.08s-1.72,1.7-1.93,1.61.13-1.41,1.5-2.28S166.89,452,166.84,452.25Z" style="fill: rgb(38, 50, 56); transform-origin: 164.707px 453.489px;" id="elzj0v9qe3mg" class="animable"></path><path d="M171.75,454.27c.06.22-.93.61-1.71,1.58s-1,2-1.22,2-.38-1.31.61-2.49S171.75,454.05,171.75,454.27Z" style="fill: rgb(38, 50, 56); transform-origin: 170.204px 456.016px;" id="elxroxcmt6un" class="animable"></path><path d="M174.56,460.14c-.21.05-.53-1.09.06-2.35s1.65-1.75,1.74-1.56-.56.86-1,1.9S174.79,460.12,174.56,460.14Z" style="fill: rgb(38, 50, 56); transform-origin: 175.325px 458.166px;" id="elxs8kenhgtu" class="animable"></path><path d="M166.41,446.73c-.1.21-1.15-.1-2.44,0s-2.3.5-2.42.31.85-1,2.37-1.1S166.52,446.55,166.41,446.73Z" style="fill: rgb(38, 50, 56); transform-origin: 163.979px 446.51px;" id="el54rpb7ftpif" class="animable"></path><path d="M164.59,446.7a1.8,1.8,0,0,0,.23-.92,4.5,4.5,0,0,0-.57-2.54,5.41,5.41,0,0,0-.52-.72,1.78,1.78,0,0,0-.85-.59.86.86,0,0,0-1.06.58,1.58,1.58,0,0,0,.32,1.15l1.15,1.92.3.5.15.25a.65.65,0,0,0,.41.32.64.64,0,0,0,.47-.15l.26-.18.49-.38a15.73,15.73,0,0,0,1.78-1.66c.27-.29.52-.58.75-.88a2.62,2.62,0,0,0,.6-1,.84.84,0,0,0-.1-.7.81.81,0,0,0-.61-.36,1.75,1.75,0,0,0-1.07.34,5,5,0,0,0-1.3,1.28,4.9,4.9,0,0,0-.88,2.44,2,2,0,0,0,.09.95,8.79,8.79,0,0,0,.12-.92,5.19,5.19,0,0,1,1-2.24A4.46,4.46,0,0,1,167,442a1.23,1.23,0,0,1,.77-.24.32.32,0,0,1,.27.45,2.37,2.37,0,0,1-.52.82c-.23.29-.47.57-.73.85a16.56,16.56,0,0,1-1.73,1.59l-.48.36-.24.18a.21.21,0,0,1-.09.05s0,.11,0,.09.05-.1,0-.08a.25.25,0,0,1,0-.07l-.16-.25-.3-.49-1.17-1.9a1.22,1.22,0,0,1-.29-.78c0-.18.27-.29.49-.24.47.12.86.66,1.13,1.06a4.68,4.68,0,0,1,.7,2.33A8.19,8.19,0,0,0,164.59,446.7Z" style="fill: rgb(38, 50, 56); transform-origin: 165.173px 444.02px;" id="elzsexjnfrvnn" class="animable"></path><path d="M82.3,429.4l-3.2,23s23.82,12,23,17.29l-46.06-5.6,3.31-13.64.42-23.33Z" style="fill: rgb(172, 159, 158); transform-origin: 79.0804px 448.405px;" id="eloefqbv73yg" class="animable"></path><path d="M56,464.49l1-4.12L101,467a3.84,3.84,0,0,1,1.09,2.71Z" style="fill: rgb(38, 50, 56); transform-origin: 79.0451px 465.04px;" id="elrvprh59gd7" class="animable"></path><path d="M80.19,453.2c0,.23-1.18.19-2.39.78s-1.92,1.48-2.11,1.37.3-1.39,1.77-2.08S80.26,453,80.19,453.2Z" style="fill: rgb(38, 50, 56); transform-origin: 77.9218px 454.124px;" id="elv9dnqo7e2oi" class="animable"></path><path d="M84.82,455.81c0,.23-1,.49-1.89,1.36S81.69,459,81.47,459s-.21-1.34.91-2.4S84.84,455.59,84.82,455.81Z" style="fill: rgb(38, 50, 56); transform-origin: 83.089px 457.341px;" id="elj7xmxlaq6v8" class="animable"></path><path d="M86.88,462c-.21,0-.39-1.15.34-2.32s1.86-1.54,1.93-1.34-.66.79-1.25,1.76S87.11,462,86.88,462Z" style="fill: rgb(38, 50, 56); transform-origin: 87.9248px 460.144px;" id="elenwk3nxf5jn" class="animable"></path><path d="M80.45,447.67c-.12.2-1.13-.24-2.42-.31s-2.34.21-2.44,0,1-.9,2.49-.8S80.58,447.51,80.45,447.67Z" style="fill: rgb(38, 50, 56); transform-origin: 78.0225px 447.136px;" id="elaiwpe6ycxnd" class="animable"></path><path d="M78.65,447.41a2,2,0,0,0,.34-.88,4.5,4.5,0,0,0-.26-2.59,4.25,4.25,0,0,0-.42-.78,1.69,1.69,0,0,0-.77-.69.87.87,0,0,0-1.13.44,1.58,1.58,0,0,0,.18,1.18l.9,2.05.24.53.12.27a.63.63,0,0,0,.36.37.66.66,0,0,0,.5-.1l.27-.14.53-.32a14.69,14.69,0,0,0,2-1.42c.3-.25.58-.51.85-.78a2.69,2.69,0,0,0,.72-.95.88.88,0,0,0,0-.71.82.82,0,0,0-.57-.43,1.68,1.68,0,0,0-1.09.21,4.74,4.74,0,0,0-1.45,1.1,4.88,4.88,0,0,0-1.18,2.32,2,2,0,0,0,0,1,7.31,7.31,0,0,0,.24-.9,5.16,5.16,0,0,1,1.25-2.1,4.61,4.61,0,0,1,1.36-1,1.23,1.23,0,0,1,.8-.14c.21.05.31.23.21.48a2.27,2.27,0,0,1-.61.75c-.27.26-.55.5-.84.75a18.15,18.15,0,0,1-1.91,1.36l-.52.31-.26.14-.1,0s0,.11,0,.08.07-.09,0-.07a.19.19,0,0,1,0-.08l-.12-.26-.25-.54c-.32-.69-.63-1.37-.92-2a1.21,1.21,0,0,1-.2-.81c0-.18.31-.25.53-.18a2.45,2.45,0,0,1,1,1.2,4.66,4.66,0,0,1,.41,2.39A7.71,7.71,0,0,0,78.65,447.41Z" style="fill: rgb(38, 50, 56); transform-origin: 79.7605px 444.906px;" id="elnke8fe4rn" class="animable"></path><path d="M139.28,296.75s24.58,48.13,28,62.68-.34,86.43-.34,86.43l-23.6,1.81s-1.68-26.95-4.1-43.23-4.3-28.39-2.5-33.24-23.13-40-23.13-40l-12.05-19,9.79-27.9Z" style="fill: rgb(38, 50, 56); transform-origin: 135.138px 365.985px;" id="el40b3xft24fe" class="animable"></path><path d="M143.38,353.41a87.66,87.66,0,0,0-3.62,8.67,92.51,92.51,0,0,0-3.18,8.84,93.82,93.82,0,0,0,3.62-8.67C142.08,357.41,143.5,353.45,143.38,353.41Z" style="fill: rgb(69, 90, 100); transform-origin: 139.984px 362.165px;" id="eloihxzmlqaj" class="animable"></path><path d="M124.43,300S99.5,373.1,97.07,375.88s-16.62,71.79-16.62,71.79l-21-.53s-.64-51.83,2.82-65.34,8.86-35,10.94-52.67-.69-27.49,0-39S77,272.91,77,272.91l47.44,20.2Z" style="fill: rgb(38, 50, 56); transform-origin: 91.9217px 360.29px;" id="el5usl1md6a18" class="animable"></path><path d="M121.62,308.33a4.52,4.52,0,0,0-.3.69q-.28.75-.78,2l-2.77,7.43c-2.3,6.28-5.42,15-8.85,24.61s-6.58,18.32-8.92,24.59l-2.77,7.42c-.32.85-.57,1.52-.75,2a3.53,3.53,0,0,0-.23.72,5.93,5.93,0,0,0,.32-.68c.2-.5.48-1.16.83-2,.71-1.73,1.71-4.25,2.92-7.37,2.42-6.25,5.61-14.93,9-24.55l8.73-24.66c1.1-3.12,2-5.67,2.63-7.48l.69-2A4.47,4.47,0,0,0,121.62,308.33Z" style="fill: rgb(69, 90, 100); transform-origin: 108.935px 343.06px;" id="elscl2h9onzv" class="animable"></path><path d="M79.68,286.14a2.47,2.47,0,0,0,.51.63,11.07,11.07,0,0,0,1.65,1.43,14.31,14.31,0,0,0,13.82,1.73,12.45,12.45,0,0,0,2-1c.43-.27.66-.45.64-.48s-1,.55-2.72,1.16A15.14,15.14,0,0,1,82,287.93C80.52,286.92,79.74,286.08,79.68,286.14Z" style="fill: rgb(69, 90, 100); transform-origin: 88.9906px 288.554px;" id="elupmgyue3enh" class="animable"></path><path d="M162.23,193.59,148.7,209.22l1.46,4.28,6.9,7.93s2.54,1.33,6.75-6.27,8.33-21.54,8.33-21.54Z" style="fill: rgb(255, 190, 157); transform-origin: 160.42px 207.555px;" id="els0whi9ogi2o" class="animable"></path><path d="M187,158.61a1.59,1.59,0,0,0-1.47-.58l-9.45,1.3a2.92,2.92,0,0,0-2,1.3L154.38,190.8l1.51.84,10.45-.33L187.25,159Z" style="fill: rgb(38, 50, 56); transform-origin: 170.815px 174.827px;" id="elc3h4t0wnw4f" class="animable"></path><path d="M180.26,162.53a.68.68,0,1,0,.06-.81A.6.6,0,0,0,180.26,162.53Z" style="fill: rgb(255, 255, 255); transform-origin: 180.822px 162.165px;" id="elxphdoj5byvc" class="animable"></path><path d="M187.25,159a14.68,14.68,0,0,1-1.83.36l-5,.77-3.46.51a1.92,1.92,0,0,0-1.46.86c-.37.56-.74,1.14-1.12,1.74l-5,7.72c-3.57,5.48-6.83,10.41-9.21,14l-2.85,4.2a11.41,11.41,0,0,1-1.11,1.5,12.5,12.5,0,0,1,.92-1.62l2.7-4.3c2.3-3.61,5.5-8.58,9.07-14.06l5.05-7.7,1.14-1.73a2.43,2.43,0,0,1,1.8-1l3.48-.44,5-.6A11.07,11.07,0,0,1,187.25,159Z" style="fill: rgb(69, 90, 100); transform-origin: 171.73px 174.83px;" id="elphq0vdr8d3" class="animable"></path><path d="M176.76,169.76s-.84-.15-1.3,2.15-2,8.92-2,8.92l-4.41-2.35-5.52.72s-1.21,1.12-.33,1.72a20,20,0,0,0,4.38,1.23l2.57,3.7-7.39-3.56s-2.46.64-1.74,2.14,5.7,6.22,5.7,6.22l-3.7-.28-4.4-2.68s-1.35.06-.84,1.21,5.08,5.31,5.08,5.31l5.55,2.69s3-.23,3.32-1.12a10.32,10.32,0,0,0,.36-2.16s1.61-.44,1.91-1.22a4.85,4.85,0,0,0,.11-2s2.52.44,2.84-1a16,16,0,0,0-.21-5.27c-.25-1.08,1.08-11.14,1-11.45S178.35,169.09,176.76,169.76Z" style="fill: rgb(255, 190, 157); transform-origin: 167.743px 183.285px;" id="el80zbhmwf549" class="animable"></path><path d="M172,195.79a3.15,3.15,0,0,1-1.45.45,9.84,9.84,0,0,1-7-1.67c-.76-.55-1.13-1-1.09-1a20.4,20.4,0,0,0,4.57,2C169.69,196.18,171.94,195.61,172,195.79Z" style="fill: rgb(235, 153, 110); transform-origin: 167.229px 194.953px;" id="eli4e58bgma1o" class="animable"></path><path d="M170.66,193.8c-.09.13-1.07-.39-2.12-1.25s-1.75-1.73-1.64-1.84,1,.56,2,1.4S170.75,193.67,170.66,193.8Z" style="fill: rgb(235, 153, 110); transform-origin: 168.778px 192.259px;" id="elc8sgi3dtkc" class="animable"></path><path d="M173.58,189c-.09.13-1.06-.38-2.05-1.29s-1.56-1.84-1.44-1.93.88.64,1.83,1.51S173.67,188.88,173.58,189Z" style="fill: rgb(235, 153, 110); transform-origin: 171.831px 187.396px;" id="el34r45yuj79x" class="animable"></path><path d="M176.65,185.15c-.15.06-.71-1-1.59-2.11s-1.73-1.95-1.63-2.08,1.16.52,2.08,1.73A4.32,4.32,0,0,1,176.65,185.15Z" style="fill: rgb(235, 153, 110); transform-origin: 175.036px 183.048px;" id="el89j204num4c" class="animable"></path><path d="M168.36,209l-9.85-13.94-4.58,5.82-11.62,9.89,8.8,34.54L158,238.4s6.87-19.69,7.16-23.6Z" style="fill: rgb(172, 159, 158); transform-origin: 155.335px 220.185px;" id="elutv8bgod4cl" class="animable"></path><path d="M135.68,167.4c-5.49,1.16-15.7-4.27-26.05-8.44l9.13,32.26,32.35,58.21-2.19-51.77Z" style="fill: rgb(255, 255, 255); transform-origin: 130.37px 204.195px;" id="elwd70053ogn" class="animable"></path><path d="M136,167.76s13.06,21.33,14.09,23.77,3.71,13.19,5,20.88,3.36,30.64,3.39,45.89c0,8-.08,15.39-.19,21.23A21.49,21.49,0,0,1,147.1,298h0s1.23-65.62.75-69.13.45-10.3-.75-20.24a54.88,54.88,0,0,0-4.79-17.19c-1.61-3.75-5.55-16.12-6.3-20.81S136,167.76,136,167.76Z" style="fill: rgb(172, 159, 158); transform-origin: 147.077px 232.706px;" id="el34j7q6tc168" class="animable"></path><path d="M91.37,163l13.21-1.49,4.63-3.44,4.81,4.79a119.74,119.74,0,0,1,31.11,53.49c2.67,9.89,4.86,20.73,5.36,30.88,1.44,29.28-2.41,52.5-3.48,52.5s-80.22-21.57-80.22-21.57l3.88-27.5,11.83-79S85.91,163.51,91.37,163Z" style="fill: rgb(172, 159, 158); transform-origin: 108.799px 228.9px;" id="elinb7kdhwavo" class="animable"></path><path d="M56.41,229.12s.27-12.37,3.23-18.28,25-43.08,25-43.08,29.54,19.41,16.64,57.06L97,226.16s2.68,1.88,2.15,4.57c0,0,7.31-.54,9.43,4.44,0,0,3.2-.14,5.09,1.48s11.56,12.19,11.56,12.19-10,17.38-13.45,17.65-1.34,0-1.34,0l-9.68-7.26s-14.25,2.42-21,.27-11.3-7.88-13.72-10.66S56,235,56.41,229.12Z" style="fill: rgb(172, 159, 158); transform-origin: 90.812px 217.185px;" id="eljjx9kdb3ovl" class="animable"></path><path d="M81.88,232.66a31.85,31.85,0,0,1,6.91-4.5,35,35,0,0,1,8-2.07,8.75,8.75,0,0,0-2.45.08,20.88,20.88,0,0,0-5.73,1.55,20.37,20.37,0,0,0-5,3.17A9.24,9.24,0,0,0,81.88,232.66Z" style="fill: rgb(38, 50, 56); transform-origin: 89.335px 229.35px;" id="elcae7qavie6e" class="animable"></path><path d="M74.53,214a4.71,4.71,0,0,0,.92.46L78,215.62c2.16,1,5.1,2.37,8.27,4.07s6,3.4,8,4.67l2.36,1.5a4.55,4.55,0,0,0,.89.52,3.78,3.78,0,0,0-.79-.67c-.52-.4-1.3-1-2.28-1.63a87.84,87.84,0,0,0-7.91-4.8,89.48,89.48,0,0,0-8.36-4c-1.1-.44-2-.78-2.62-1A4.16,4.16,0,0,0,74.53,214Z" style="fill: rgb(38, 50, 56); transform-origin: 86.025px 220.19px;" id="ele18hv8c717p" class="animable"></path><path d="M98.33,244.18a19.45,19.45,0,0,1,11.7-9,6.69,6.69,0,0,0-2.22.44,16.12,16.12,0,0,0-8.5,6.56A6.61,6.61,0,0,0,98.33,244.18Z" style="fill: rgb(38, 50, 56); transform-origin: 104.18px 239.68px;" id="eldy4p8vzsn" class="animable"></path><path d="M102.26,259.48c.07,0,.75-1.18,1.92-3.11s2.85-4.55,4.87-7.33,4-5.18,5.5-6.88,2.42-2.73,2.37-2.78a4.43,4.43,0,0,0-.75.64c-.46.44-1.1,1.09-1.87,1.91a74.82,74.82,0,0,0-10.41,14.27c-.55,1-1,1.8-1.25,2.37A4.1,4.1,0,0,0,102.26,259.48Z" style="fill: rgb(38, 50, 56); transform-origin: 109.591px 249.43px;" id="elk45ofmxlhnc" class="animable"></path><path d="M112.18,258.51s-.09-.14-.36-.24a1.78,1.78,0,0,0-2.35,1.41,1.89,1.89,0,0,0,1.06,1.94,1.85,1.85,0,0,0,2.13-.59,1.65,1.65,0,0,0-.84-2.55c-.28-.08-.44,0-.44,0a2,2,0,0,1,1.09.92,1.25,1.25,0,0,1-.15,1.37,1.44,1.44,0,0,1-1.6.42,1.46,1.46,0,0,1-.81-1.46,1.35,1.35,0,0,1,.83-1.13A2.37,2.37,0,0,1,112.18,258.51Z" style="fill: rgb(38, 50, 56); transform-origin: 111.217px 259.957px;" id="elyhs7dbjm48" class="animable"></path><path d="M132,287.88a17.39,17.39,0,0,0,3.43-3.08,27.27,27.27,0,0,0,5.69-10.91,40.5,40.5,0,0,0,1.27-8.38,79.58,79.58,0,0,0-.15-9.7,199.25,199.25,0,0,0-2.72-22.05,203.54,203.54,0,0,0-11-38.91,152.34,152.34,0,0,0-6.9-15.37,1.09,1.09,0,0,0,.11.28c.09.2.2.47.35.8l1.39,3.05c.58,1.34,1.3,3,2.12,4.85s1.71,4.07,2.61,6.5a210.2,210.2,0,0,1,10.89,38.88,206,206,0,0,1,2.75,22,81.41,81.41,0,0,1,.2,9.66,41.41,41.41,0,0,1-1.21,8.31,27.52,27.52,0,0,1-5.5,10.88,24.59,24.59,0,0,1-2.39,2.41l-.68.57C132.11,287.8,132,287.87,132,287.88Z" style="fill: rgb(38, 50, 56); transform-origin: 132.046px 233.68px;" id="elubczepmbuhp" class="animable"></path><path d="M124,286.14a2.78,2.78,0,0,0,.46-.32c.28-.23.73-.53,1.24-1a33.69,33.69,0,0,0,4.06-4.15,38.29,38.29,0,0,0,4.72-7.08,29.53,29.53,0,0,0,3.17-9.78,28.83,28.83,0,0,0-.68-10.19,31,31,0,0,0-3.13-7.82,28.77,28.77,0,0,0-3.31-4.7c-.43-.53-.83-.89-1.07-1.15a2.54,2.54,0,0,0-.4-.38s.47.58,1.32,1.64A32,32,0,0,1,133.5,246a31.42,31.42,0,0,1,3,7.76,28.81,28.81,0,0,1,.63,10,29.33,29.33,0,0,1-3.09,9.65,39.34,39.34,0,0,1-4.58,7.07,38.76,38.76,0,0,1-3.93,4.22C124.52,285.62,123.93,286.11,124,286.14Z" style="fill: rgb(38, 50, 56); transform-origin: 130.912px 262.855px;" id="elahgh7zz03fs" class="animable"></path><path d="M66.09,248.84l.45.57c.31.36.76.91,1.37,1.6a35.63,35.63,0,0,0,5.86,5.5,21.34,21.34,0,0,0,5,2.78,21.81,21.81,0,0,0,6.7,1.24,94.13,94.13,0,0,0,16.37-.85l-.15,0,8.75,6.63,0,0h0l1.19.4h.08a4.73,4.73,0,0,0,2.32-1.44,21.59,21.59,0,0,0,1.82-2c1.16-1.41,2.24-2.91,3.31-4.46,2.12-3.11,4.18-6.41,6.18-9.85l.09-.15-.12-.13c-3.56-3.85-7.21-7.89-11.17-11.84a6.08,6.08,0,0,0-2.66-1.52,10.48,10.48,0,0,0-3-.39l.23.15a7,7,0,0,0-1.72-2.34,8.75,8.75,0,0,0-2.47-1.43,14.13,14.13,0,0,0-5.48-.81l.25.28a4.15,4.15,0,0,0-.46-2.75A6.57,6.57,0,0,0,97.15,226l-.07.41,4.31-1.35.11,0,0-.11a63,63,0,0,0,3-13.09,49.32,49.32,0,0,0-.22-12.25A45.8,45.8,0,0,0,101.44,189a49.23,49.23,0,0,0-4.35-8.28,50.27,50.27,0,0,0-8.64-10.05c-1.16-1-2.11-1.76-2.75-2.24-.33-.24-.58-.42-.75-.53l-.27-.16a2.45,2.45,0,0,0,.24.2l.73.55c.63.5,1.55,1.25,2.69,2.29a51.56,51.56,0,0,1,8.51,10.1,48.85,48.85,0,0,1,4.28,8.25,45.9,45.9,0,0,1,2.77,10.45,49.16,49.16,0,0,1,.17,12.16,62,62,0,0,1-3,13l.15-.14L97,225.94l-.43.13.36.28a4.6,4.6,0,0,1,2.06,4.34l-.06.29h.3a13.64,13.64,0,0,1,5.28.78,8.35,8.35,0,0,1,2.33,1.35,6.52,6.52,0,0,1,1.59,2.16l.07.15h.16a7.28,7.28,0,0,1,5.31,1.78c3.93,3.91,7.6,8,11.16,11.81l0-.28c-2,3.44-4,6.74-6.15,9.83-1,1.55-2.13,3-3.27,4.44a25.91,25.91,0,0,1-1.78,2,4.51,4.51,0,0,1-2,1.32h.08l-1.18-.39.06,0L102,259.32l-.07,0h-.08a94.84,94.84,0,0,1-16.3.92A21.49,21.49,0,0,1,78.92,259a21.79,21.79,0,0,1-5-2.71,37.45,37.45,0,0,1-5.9-5.39l-1.41-1.57C66.27,249,66.09,248.84,66.09,248.84Z" style="fill: rgb(38, 50, 56); transform-origin: 95.76px 217.225px;" id="elr6wlkdn6x5c" class="animable"></path><path d="M136,167.76a2.8,2.8,0,0,0,.24.5l.78,1.4,2.95,5.19c2.58,4.45,6.16,10.66,10.31,17.84l0-.05c1,3.37,1.9,7.06,2.72,10.91a248.58,248.58,0,0,1,4.17,27.93c.34,3.61.5,6.53.63,8.55.05,1,.09,1.75.12,2.32a6.53,6.53,0,0,0,.07.81,4.22,4.22,0,0,0,0-.81c0-.57,0-1.35,0-2.33-.06-2-.18-5-.48-8.56a226.32,226.32,0,0,0-4-28c-.82-3.86-1.74-7.56-2.75-10.94v0l-10.46-17.75-3.07-5.13-.84-1.36A3.28,3.28,0,0,0,136,167.76Z" style="fill: rgb(38, 50, 56); transform-origin: 147.005px 205.46px;" id="elydyx9x591o" class="animable"></path><path d="M154.31,200.88a10.07,10.07,0,0,0,.9,2.44,27.75,27.75,0,0,0,3.28,5.36,27.18,27.18,0,0,0,4.4,4.48,10.16,10.16,0,0,0,2.14,1.47,22.37,22.37,0,0,0-1.93-1.72,34.09,34.09,0,0,1-7.59-9.73C154.77,201.77,154.38,200.86,154.31,200.88Z" style="fill: rgb(38, 50, 56); transform-origin: 159.67px 207.755px;" id="elwxz75gzprp" class="animable"></path><path d="M165.16,208.64c.06,0-.2-.45-.87-.35a1,1,0,0,0-.81.78,1.17,1.17,0,0,0,.57,1.25,1.19,1.19,0,0,0,1.35-.24,1,1,0,0,0,.24-1.09c-.24-.62-.72-.67-.71-.61s.3.23.39.7a.72.72,0,0,1-.22.68.79.79,0,0,1-.83.14.76.76,0,0,1-.35-.76.64.64,0,0,1,.45-.52C164.83,208.46,165.12,208.7,165.16,208.64Z" style="fill: rgb(38, 50, 56); transform-origin: 164.583px 209.354px;" id="elwaic9patiz" class="animable"></path><path d="M118.7,265.46,116,263.27s7.78-10.07,9-13.84C124.93,249.43,122.52,259.16,118.7,265.46Z" style="fill: rgb(255, 190, 157); transform-origin: 120.5px 257.445px;" id="elhnz7il9kr8f" class="animable"></path><path d="M113,276.56a5.06,5.06,0,0,0,.63-1c.42-.75.94-1.71,1.56-2.85,1.3-2.42,3.08-5.78,4.87-9.57a86.11,86.11,0,0,0,4-10c.42-1.31.73-2.38.91-3.13a6.25,6.25,0,0,0,.24-1.17,5.82,5.82,0,0,0-.42,1.12c-.23.73-.59,1.78-1,3.07-.92,2.59-2.34,6.1-4.13,9.88s-3.51,7.16-4.74,9.62c-.61,1.23-1.1,2.23-1.42,2.93A6.74,6.74,0,0,0,113,276.56Z" style="fill: rgb(38, 50, 56); transform-origin: 119.105px 262.7px;" id="elt0k3q7pd4f" class="animable"></path><path d="M137.64,195.19a1.24,1.24,0,0,1,.13.25l.31.74c.27.69.66,1.65,1.14,2.87l.82,2.08c.28.76.56,1.61.88,2.51.61,1.8,1.37,3.84,2,6.15l1.09,3.6c.38,1.26.69,2.59,1.06,4,.75,2.72,1.37,5.67,2.06,8.77a192.17,192.17,0,0,1,3,20.43,191.62,191.62,0,0,1,.61,20.64c-.13,3.17-.22,6.19-.49,9-.12,1.41-.2,2.77-.35,4.07s-.3,2.55-.45,3.74c-.24,2.39-.63,4.53-.92,6.42-.16.94-.28,1.81-.43,2.62s-.31,1.53-.44,2.19c-.27,1.28-.48,2.29-.63,3-.07.32-.13.58-.17.79a1.62,1.62,0,0,1-.08.26,1.09,1.09,0,0,1,0-.27c0-.21.08-.47.13-.8.13-.73.3-1.75.53-3,.12-.66.25-1.4.39-2.2l.39-2.62c.26-1.89.63-4,.85-6.41.13-1.19.27-2.44.41-3.74s.2-2.66.32-4.06c.25-2.81.32-5.82.45-9a202,202,0,0,0-.66-20.58,199.66,199.66,0,0,0-2.95-20.38c-.67-3.1-1.27-6.05-2-8.76-.36-1.37-.66-2.69-1-3.95s-.71-2.46-1.05-3.61c-.64-2.31-1.37-4.35-2-6.16l-.84-2.52c-.28-.76-.53-1.46-.77-2.09-.45-1.23-.8-2.2-1.05-2.9-.11-.31-.19-.56-.26-.76A1.74,1.74,0,0,1,137.64,195.19Z" style="fill: rgb(38, 50, 56); transform-origin: 144.218px 247.255px;" id="el86ed1eij3t3" class="animable"></path><path d="M148.6,291.59c0,.14-18.08-4.15-40.3-9.57s-40.22-9.95-40.18-10.09,18.07,4.15,40.3,9.58S148.63,291.45,148.6,291.59Z" style="fill: rgb(38, 50, 56); transform-origin: 108.36px 281.76px;" id="elk8sslqpgk4" class="animable"></path><g id="el3fonxh0s9wz"><g style="opacity: 0.3; transform-origin: 90.8489px 261.698px;" class="animable"><path d="M108.36,264.65c-1.23-.79-6.1-5.17-6.1-5.17a171.49,171.49,0,0,1-17.36.5c-5.25-.19-10.24-2.87-14-6.5l-.59,1c0,4.27,3.19,8.09,7.1,9.82s8.4,1.64,12.59.82c2.84-.56,5.85-1.43,8.53-.33,2.18.9,3.65,2.94,5.56,4.34a5.47,5.47,0,0,0,6.87-1C112.32,266.32,110.16,265.8,108.36,264.65Z" id="el54gq6ef8xf" class="animable" style="transform-origin: 90.8489px 261.698px;"></path></g></g><g id="elvwbipf0aa2"><g style="opacity: 0.3; transform-origin: 87.1569px 228.806px;" class="animable"><path d="M97.42,226.09a18.35,18.35,0,0,0-19,2.26,5.25,5.25,0,0,0-1.59,1.86,2.2,2.2,0,0,0,.21,2.32,2.34,2.34,0,0,0,2.35.55,7.8,7.8,0,0,0,2.23-1.21,37.75,37.75,0,0,1,16.1-6.1" id="elmzwzv9774sn" class="animable" style="transform-origin: 87.1569px 228.806px;"></path></g></g></g><defs>     <filter id="active" height="200%">         <feMorphology in="SourceAlpha" result="DILATED" operator="dilate" radius="2"></feMorphology>                <feFlood flood-color="#32DFEC" flood-opacity="1" result="PINK"></feFlood>        <feComposite in="PINK" in2="DILATED" operator="in" result="OUTLINE"></feComposite>        <feMerge>            <feMergeNode in="OUTLINE"></feMergeNode>            <feMergeNode in="SourceGraphic"></feMergeNode>        </feMerge>    </filter>    <filter id="hover" height="200%">        <feMorphology in="SourceAlpha" result="DILATED" operator="dilate" radius="2"></feMorphology>                <feFlood flood-color="#ff0000" flood-opacity="0.5" result="PINK"></feFlood>        <feComposite in="PINK" in2="DILATED" operator="in" result="OUTLINE"></feComposite>        <feMerge>            <feMergeNode in="OUTLINE"></feMergeNode>            <feMergeNode in="SourceGraphic"></feMergeNode>        </feMerge>            <feColorMatrix type="matrix" values="0   0   0   0   0                0   1   0   0   0                0   0   0   0   0                0   0   0   1   0 "></feColorMatrix>    </filter></defs></svg>